<svg width="271" height="292" viewBox="0 0 271 292" fill="none" xmlns="http://www.w3.org/2000/svg">
<g clip-path="url(#clip0_125_1389)">
<path d="M171.913 231.553C178.922 231.426 186.026 231.979 192.919 230.974C199.685 229.984 206.296 228.089 212.549 225.346C218.694 222.627 224.18 218.463 229.836 214.75C230.399 214.384 230.188 212.935 230.334 211.989L230.386 212.017C224.675 215.37 219.273 219.484 213.163 221.846C207.497 224.036 201.078 224.371 194.973 225.443C193.935 225.626 192.776 225.269 191.79 225.553C180.159 228.855 169.804 224.876 159.205 221.703C155.444 220.585 151.114 221.147 147.313 220.118C142.127 218.716 137.178 216.592 132.179 214.658C125.324 212.007 118.412 209.469 111.728 206.476C103.712 202.878 95.8425 198.989 88.1107 194.888C86.2546 193.904 85.2225 191.594 83.7997 189.9C85.8787 188.974 88.5337 188.524 89.9026 187.031C92.4058 184.335 95.4973 181.131 95.9061 177.923C97.1045 168.182 96.9835 158.34 97.6589 148.544C98.2741 139.664 99.6221 130.797 99.9824 121.923C100.445 110.776 100.917 99.5603 100.051 88.5087C99.5552 82.0688 97.8643 74.9999 94.2397 69.7684C88.8549 62.0018 95.4526 57.4216 97.997 51.9326C100.637 46.2556 103.926 40.433 108.406 35.9989C112.228 32.216 117.95 28.7909 123.187 28.0723C127.213 27.5192 132.238 30.8559 136.029 33.4816C141.078 36.9921 145.405 41.4534 149.962 45.5884C155.317 50.4659 160.128 55.9775 165.99 60.231C171.851 64.4846 178.604 67.4404 184.973 70.9679L184.943 71.0179C182.069 69.0327 178.893 67.2919 176.375 64.941C171.864 60.7382 167.758 56.1515 163.468 51.7354C159.55 47.6981 155.76 43.5194 151.637 39.686C147.164 35.5511 142.937 30.688 137.513 28.0938C131.629 25.2835 123.861 22.3286 118.058 23.8306C111.961 25.4086 107.014 31.9717 101.971 36.7728C98.9056 39.6968 96.3746 43.2321 94.1458 46.7725C92.4909 49.4347 91.4975 52.5256 90.611 55.5226C88.3263 63.2556 82.5769 58.537 78.205 59.4067C72.8625 60.4729 65.7134 61.9556 63.1365 65.5913C57.3085 73.8237 53.1544 83.2888 49.6136 92.6552C47.6874 97.7438 47.3865 103.82 48.1379 109.177C49.8414 121.358 51.803 133.616 55.3083 145.364C57.5173 152.771 62.7463 159.287 66.5148 166.258C67.3479 167.8 67.6042 169.624 68.3574 171.215C70.5068 175.751 72.4337 180.426 75.0648 184.691C78.869 190.816 72.6073 192.264 69.8483 195.423C63.1507 203.098 59.9711 195.356 55.9705 192.635C55.3583 192.207 57.5069 188.573 57.8873 186.362C58.211 184.424 58.657 181.474 57.5988 180.683C55.9756 179.473 52.7004 178.846 50.8954 179.622C49.0904 180.398 48.0534 183.173 46.8747 185.155C45.8156 186.947 45.3079 189.073 44.0368 190.688C43.0894 191.871 41.3115 192.497 39.898 193.37C41.9304 194.083 44.2666 195.819 45.9404 195.332C53.1437 193.229 54.0575 199.703 57.9026 202.166C63.3115 205.661 68.9771 208.997 74.9424 211.587C81.4639 214.421 88.3632 216.611 95.2772 218.571C105.048 221.337 114.866 224.114 124.885 225.949C130.975 227.053 137.801 225.386 143.72 226.851C150.492 228.531 156.418 232.822 163.091 235.014C169.551 237.131 176.412 238.758 183.249 239.27C192.908 239.987 202.71 239.483 212.451 239.504C212.944 239.503 213.436 239.641 213.921 239.595C225.197 238.54 236.458 237.238 247.746 236.511C251.891 236.244 256.08 237.463 260.277 237.755C261.94 237.867 263.697 237.377 265.367 236.984C265.623 236.914 265.925 235.445 265.745 235.365C263.934 234.475 262.087 233.132 260.166 233.03C250.817 232.56 241.446 232.276 232.07 232.257C227.192 232.249 222.286 232.808 217.407 233.308C210.43 234.027 203.39 235.85 196.521 235.504C188.258 235.092 180.146 232.902 171.971 231.477C170.905 231.631 169.776 232.023 168.804 231.823C168.396 231.74 168.31 230.401 168.076 229.633L171.913 231.553ZM55.5512 134.013C54.1664 125.298 52.8236 119.197 52.3446 113.011C51.9783 108.329 52.0621 103.421 53.1254 98.8279C54.5421 92.7051 57.6892 86.8846 59.022 80.7617C60.7824 72.7564 68.9639 64.443 77.4888 63.2812C81.8155 62.6919 85.9112 67.7388 85.0936 71.5856C83.2227 80.416 81.4382 89.2735 80.5408 98.1837C79.7341 106.233 80.1467 114.359 80.0317 122.449C79.9731 126.278 80.0982 130.111 79.8557 133.934C79.3224 142.204 78.0543 150.49 78.1281 158.728C78.1705 165.648 79.685 172.543 80.4176 179.463C80.5074 180.335 79.8058 181.304 79.4712 182.227C78.8862 181.542 78.093 180.941 77.7527 180.161C74.1916 171.969 70.9963 163.621 67.1071 155.578C63.218 147.536 58.59 139.673 55.5328 134.018L55.5512 134.013ZM84.9843 173.004C84.6403 167.198 83.9039 159.821 83.8517 152.423C83.7861 143.135 84.3081 133.814 84.5202 124.514C84.6167 120.361 84.5042 116.201 84.6375 112.056C84.7172 108.8 84.9207 105.509 85.3634 102.264C86.2985 95.1137 87.344 87.9759 88.4998 80.851C88.7277 79.4022 89.6366 78.0627 90.2327 76.6794C91.6025 77.7228 93.9523 78.5854 94.1783 79.8405C95.3128 86.2209 96.4298 92.68 96.5306 99.1541C96.6562 106.975 95.7991 114.825 95.2622 122.657C94.7361 130.315 94.0502 137.966 93.4942 145.623C93.231 149.23 93.3655 152.867 92.869 156.45C91.8771 163.515 90.5931 170.539 89.4321 177.581C89.2228 178.83 89.0283 180.08 88.8248 181.333C88.0263 180.235 87.0563 179.211 86.4486 178.019C85.8906 176.97 85.7393 175.718 84.9843 173.004ZM124.955 220.796C117.866 219.217 110.798 218.103 104.095 216.016C97.392 213.93 90.842 210.904 84.3611 208.11C83.1371 207.59 81.3243 206.054 81.5233 205.334C81.9676 203.618 83.3577 202.059 84.5904 200.607C84.7355 200.438 86.2822 201.267 87.1469 201.681C88.6707 202.41 90.1235 203.273 91.6866 203.913C102.757 208.444 113.851 212.918 124.909 217.477C125.278 217.647 125.605 217.885 125.872 218.179C126.139 218.472 126.34 218.814 126.464 219.185C126.552 219.554 125.547 220.195 124.955 220.796ZM76.0656 203.275L71.1872 202.112C72.626 200.392 73.93 198.523 75.6185 197.063C76.0156 196.718 77.7295 197.723 78.8361 198.103L76.0656 203.275ZM162.024 229.706C162.586 229.034 162.84 228.494 163.257 228.31C163.564 228.175 164.091 228.507 164.519 228.63C164.329 229.079 164.257 229.741 163.893 229.924C163.53 230.107 162.932 229.836 162.024 229.706ZM132.46 219.123C132.7 219.378 132.9 219.663 133.056 219.972C133.063 220.23 133.022 220.488 132.934 220.735C132.625 220.675 132.331 220.563 132.068 220.404C131.968 220.33 132.185 219.942 132.448 219.113L132.46 219.123Z" fill="#E3AAB6"/>
<path d="M191.886 171.563C177.169 178.178 160.245 182.621 144.784 187.162C139.02 188.856 133.6 191.7 127.96 193.859C127.146 194.175 125.976 193.603 124.971 193.445C125.769 192.912 126.589 192.405 127.37 191.863C133.198 187.6 138.973 183.268 144.863 179.085C148.022 176.834 151.503 174.993 154.643 172.709C160.477 168.5 166.098 164.026 171.94 159.828C174.962 157.651 178.034 155.28 181.47 153.918C192.039 149.719 202.808 145.993 213.463 141.983C214.664 141.534 215.605 140.43 216.669 139.63C215.322 139.537 213.903 139.15 212.678 139.462C206.233 141.099 199.528 142.302 193.475 144.853C187.086 147.527 181.31 151.587 175.259 155.033C171.532 157.158 167.648 159.054 164.096 161.418C157.824 165.59 151.785 170.091 145.576 174.348C140.056 178.143 134.549 181.967 128.827 185.461C124.588 188.046 119.66 189.719 115.761 192.641C114.373 193.677 114.233 197.565 115.076 199.515C115.707 200.969 119.232 202.6 120.786 202.109C135.974 197.223 151.052 192.011 166.079 186.669C173.512 184.027 186.45 176.758 193.697 173.659C195.088 173.061 190.272 175.522 191.396 174.248L191.886 171.563Z" fill="#E3AAB6"/>
<path d="M228.141 101.747C229.735 104.711 231.225 107.514 232.737 110.307C232.395 107.166 232.447 103.95 231.614 100.957C230.749 97.8484 229.058 94.9613 227.73 91.9752C227.853 95.2176 228.004 98.4526 228.141 101.747Z" fill="#E3AAB6"/>
<path d="M191.338 174.254C195.673 172.031 200.057 169.874 204.294 167.493C204.84 167.187 204.661 165.692 204.817 164.748L204.864 164.777C200.522 167.011 196.135 169.174 191.887 171.567C191.355 171.87 191.539 173.349 191.391 174.286L191.338 174.254Z" fill="#E3AAB6"/>
<path d="M241.719 161.847L245.596 167.841C245.212 164.444 244.997 161.014 244.351 157.665C244.147 156.593 242.83 155.739 241.994 154.79L241.719 161.847Z" fill="#E3AAB6"/>
<path d="M218.913 146.353L223.956 142.065L223.925 142.115L223.164 139.38L223.221 139.406C218.199 139.835 216.844 142.193 218.965 146.381L218.913 146.353Z" fill="#E3AAB6"/>
<path d="M223.965 142.063L230.205 145.815L230.961 143.875L223.932 142.104L223.965 142.063Z" fill="#E3AAB6"/>
<path d="M211.951 156.976L216.796 149.85L216.848 149.877L212.017 157C202.765 169.543 211.951 156.976 211.951 156.976Z" fill="#E3AAB6"/>
<path d="M213.744 80.9689L205.917 77.3047L205.947 77.2548L213.774 80.919L213.744 80.9689Z" fill="#E3AAB6"/>
<path d="M221.007 84.7875L213.744 80.969L213.774 80.919L221.038 84.7376L221.007 84.7875Z" fill="#E3AAB6"/>
<path d="M205.917 77.3047L199.39 76.1864L199.42 76.1364L205.938 77.2573L205.917 77.3047Z" fill="#E3AAB6"/>
<path d="M221.038 84.7375L223.863 89.5736C224.141 88.8041 224.931 87.585 224.669 87.3334C223.623 86.3213 222.257 85.6097 221.003 84.7887L221.038 84.7375Z" fill="#E3AAB6"/>
<path d="M230.765 119.854C231.414 118.521 232.229 117.216 232.6 115.821C232.698 115.466 231.403 114.813 230.746 114.295L230.821 119.88L230.765 119.854Z" fill="#E3AAB6"/>
<path d="M223.173 139.378L224.546 133.184L224.598 133.211L223.23 139.404L223.173 139.378Z" fill="#E3AAB6"/>
<path d="M235.45 147.641L238.265 152.442C238.541 151.664 239.319 150.439 239.044 150.177C238.014 149.184 236.644 148.497 235.396 147.697L235.45 147.641Z" fill="#E3AAB6"/>
<path d="M204.808 164.751L209.831 160.482L209.883 160.509L204.867 164.786L204.808 164.751Z" fill="#E3AAB6"/>
<path d="M246.415 173.85L243.715 171.818C243.468 172.809 242.836 173.865 243.073 174.701C243.311 175.537 244.431 176.039 245.17 176.692L246.415 173.85Z" fill="#E3AAB6"/>
<path d="M238.105 192.86C237.449 194.19 236.632 195.486 236.263 196.872C236.166 197.231 237.458 197.889 238.112 198.412C238.096 196.55 238.072 194.691 238.039 192.836L238.105 192.86Z" fill="#E3AAB6"/>
<path d="M199.389 76.1864C198.097 75.6163 196.842 74.8278 195.479 74.5358C195.081 74.4508 194.336 75.7409 193.717 76.4049L199.433 76.1327L199.389 76.1864Z" fill="#E3AAB6"/>
<path d="M235.292 205.215C236.001 204.097 236.873 202.998 237.294 201.783C237.407 201.461 236.111 200.721 235.468 200.199C235.431 201.882 235.389 203.564 235.344 205.243L235.292 205.215Z" fill="#E3AAB6"/>
<path d="M188.716 73.2559L191.388 75.3289L192.314 73.7859L188.691 73.3274L188.716 73.2559Z" fill="#E3AAB6"/>
<path d="M230.457 212.358L233.169 208.713L233.226 208.739L230.509 212.385L230.457 212.358Z" fill="#E3AAB6"/>
<path d="M235.419 147.691L233.287 145.553L232.377 147.069L235.45 147.641L235.419 147.691Z" fill="#E3AAB6"/>
<path d="M185.072 71.3428L188.706 73.2585L188.675 73.3084L185.041 71.3884L185.072 71.3428Z" fill="#E3AAB6"/>
<path d="M209.831 160.482C210.542 159.317 211.249 158.151 211.953 156.985L212.01 157.011L209.883 160.509L209.831 160.482Z" fill="#E3AAB6"/>
<path d="M235.354 205.244L233.227 208.743L233.17 208.717L235.291 205.215L235.354 205.244Z" fill="#E3AAB6"/>
<path d="M230.825 119.879L228.527 122.089L229.886 122.811L230.764 119.854L230.825 119.879Z" fill="#E3AAB6"/>
<path d="M224.546 133.184L226.935 131.143L225.377 130.271L224.612 133.193L224.546 133.184Z" fill="#E3AAB6"/>
<path d="M218.975 146.378L216.848 149.877L216.796 149.85C217.499 148.68 218.208 147.514 218.923 146.351L218.975 146.378Z" fill="#E3AAB6"/>
<path d="M228.622 129.586C229.049 128.605 229.583 127.936 229.422 127.606C229.219 127.177 228.47 126.86 227.902 126.784C227.697 126.757 227.037 127.645 227.123 127.972C227.241 128.449 227.837 128.817 228.622 129.586Z" fill="#E3AAB6"/>
<path d="M95.1222 157.621L95.2051 156.147" stroke="#E3AAB6" stroke-width="2" stroke-linecap="round" stroke-linejoin="round"/>
<path d="M96.5006 151.43L95.832 147.256" stroke="#E3AAB6" stroke-width="2" stroke-linecap="round" stroke-linejoin="round"/>
<path d="M98.8345 113.014L98.8887 111.544" stroke="#E3AAB6" stroke-width="2" stroke-linecap="round" stroke-linejoin="round"/>
<path d="M99.9119 105.742L99.2158 101.575" stroke="#E3AAB6" stroke-width="2" stroke-linecap="round" stroke-linejoin="round"/>
<path d="M99.7881 94.1537L98.791 88.9048" stroke="#E3AAB6" stroke-width="2" stroke-linecap="round" stroke-linejoin="round"/>
<path d="M95.7135 78.4126L94.4562 75.5594" stroke="#E3AAB6" stroke-width="2" stroke-linecap="round" stroke-linejoin="round"/>
<path d="M83.2627 102.738L83.6589 105.828" stroke="#E3AAB6" stroke-width="2" stroke-linecap="round" stroke-linejoin="round"/>
<path d="M82.6387 111.638L83.0349 114.728" stroke="#E3AAB6" stroke-width="2" stroke-linecap="round" stroke-linejoin="round"/>
<path d="M82.0869 167.588C82.0658 168.079 82.0481 168.564 82.0315 169.054" stroke="#E3AAB6" stroke-width="2" stroke-linecap="round" stroke-linejoin="round"/>
<path d="M112.057 29.6152L113.96 28.6595" stroke="#E3AAB6" stroke-width="2" stroke-linecap="round" stroke-linejoin="round"/>
<path d="M123.502 26.1931L125.634 26.0433" stroke="#E3AAB6" stroke-width="2" stroke-linecap="round" stroke-linejoin="round"/>
<path d="M158.101 49.6987L158.906 50.929" stroke="#E3AAB6" stroke-width="2" stroke-linecap="round" stroke-linejoin="round"/>
<path d="M162.483 54.3066L169.926 61.5694" stroke="#E3AAB6" stroke-width="2" stroke-linecap="round" stroke-linejoin="round"/>
<path d="M49.5234 108.507L50.069 112.133" stroke="#E3AAB6" stroke-width="2" stroke-linecap="round" stroke-linejoin="round"/>
<path d="M60.359 148.546L62.3448 154.106" stroke="#E3AAB6" stroke-width="2" stroke-linecap="round" stroke-linejoin="round"/>
<path d="M192.529 238.608L196.96 237.828" stroke="#E3AAB6" stroke-width="2" stroke-linecap="round" stroke-linejoin="round"/>
<path d="M206.531 237.678L209.812 237.214" stroke="#E3AAB6" stroke-width="2" stroke-linecap="round" stroke-linejoin="round"/>
<path d="M220.533 236.749L224.965 235.969" stroke="#E3AAB6" stroke-width="2" stroke-linecap="round" stroke-linejoin="round"/>
<path d="M234.535 235.819L238.394 235.197" stroke="#E3AAB6" stroke-width="2" stroke-linecap="round" stroke-linejoin="round"/>
<path d="M246.236 235.534L250.091 234.912" stroke="#E3AAB6" stroke-width="2" stroke-linecap="round" stroke-linejoin="round"/>
<path d="M255.645 235.845L258.357 235.564" stroke="#E3AAB6" stroke-width="2" stroke-linecap="round" stroke-linejoin="round"/>
<path d="M262.712 236.815L264.766 236.4" stroke="#E3AAB6" stroke-width="2" stroke-linecap="round" stroke-linejoin="round"/>
<path d="M143.264 177.416L146.898 175.986" stroke="#E3AAB6" stroke-width="2" stroke-linecap="round" stroke-linejoin="round"/>
<path d="M156.734 167.913L160.945 166.324" stroke="#E3AAB6" stroke-width="2" stroke-linecap="round" stroke-linejoin="round"/>
<path d="M161.234 166.245C162.35 165.066 163.263 163.564 164.63 162.773C168.76 160.376 173.065 158.258 177.301 156.03" stroke="#E3AAB6" stroke-width="2" stroke-linecap="round" stroke-linejoin="round"/>
<path d="M177.589 155.951L189.279 150.133" stroke="#E3AAB6" stroke-width="2" stroke-linecap="round" stroke-linejoin="round"/>
<path d="M208.208 225.884L213.067 224.409" stroke="#E3AAB6" stroke-width="2" stroke-linecap="round" stroke-linejoin="round"/>
<path d="M191.427 146.638L215.876 139.797" stroke="#E3AAB6" stroke-width="2" stroke-linecap="round" stroke-linejoin="round"/>
<path d="M66.1697 64.7097L68.6954 64.3088" stroke="#E3AAB6" stroke-width="2" stroke-linecap="round" stroke-linejoin="round"/>
<path d="M227.976 93.0354L232.483 109.235" stroke="#E3AAB6" stroke-width="2" stroke-linecap="round" stroke-linejoin="round"/>
<path d="M43.4621 193.123L39.6818 194.011" stroke="#E3AAB6" stroke-width="2" stroke-linecap="round" stroke-linejoin="round"/>
<path d="M242.376 155.933L246.578 171.033" stroke="#E3AAB6" stroke-width="2" stroke-linecap="round" stroke-linejoin="round"/>
<path d="M214.77 221.618L224.42 218.406" stroke="#E3AAB6" stroke-width="2" stroke-linecap="round" stroke-linejoin="round"/>
<path d="M192.428 172.519L199.032 170.566" stroke="#E3AAB6" stroke-width="2" stroke-linecap="round" stroke-linejoin="round"/>
<path d="M214.034 155.001L216.163 151.511" stroke="#E3AAB6" stroke-width="2" stroke-linecap="round" stroke-linejoin="round"/>
<path d="M200.32 167.454L203.778 166.507" stroke="#E3AAB6" stroke-width="2" stroke-linecap="round" stroke-linejoin="round"/>
<path d="M244.007 172.921L244.758 175.621" stroke="#E3AAB6" stroke-width="2" stroke-linecap="round" stroke-linejoin="round"/>
<path d="M237.245 148.618L237.997 151.319" stroke="#E3AAB6" stroke-width="2" stroke-linecap="round" stroke-linejoin="round"/>
<path d="M201.226 77.1158L204.106 76.3265" stroke="#E3AAB6" stroke-width="2" stroke-linecap="round" stroke-linejoin="round"/>
<path d="M231.104 115.426L231.856 118.127" stroke="#E3AAB6" stroke-width="2" stroke-linecap="round" stroke-linejoin="round"/>
<path d="M222.84 85.7225L223.591 88.4233" stroke="#E3AAB6" stroke-width="2" stroke-linecap="round" stroke-linejoin="round"/>
<path d="M235.787 201.327L236.384 203.474" stroke="#E3AAB6" stroke-width="2" stroke-linecap="round" stroke-linejoin="round"/>
<path d="M238.543 188.946L239.14 191.093" stroke="#E3AAB6" stroke-width="2" stroke-linecap="round" stroke-linejoin="round"/>
<path d="M210.141 141.4C215.894 140.169 221.855 140.578 227.26 142.575C232.666 144.572 237.271 148.066 240.485 152.61C243.7 157.154 245.378 162.541 245.305 168.081C245.231 173.622 243.41 179.064 240.074 183.711C240.074 183.711 239.907 203.678 229.169 213.186C218.432 222.695 228.893 213.114 229.427 214.114L226.546 214.903" stroke="#E3AAB6" stroke-width="7" stroke-linecap="round" stroke-linejoin="round"/>
<path d="M169.93 61.5681C169.93 61.5681 183.745 73.4299 201.028 76.4074C215.935 78.9776 227.586 88.0773 230.692 97.6282C237.358 118.043 223.516 134.94 223.516 134.94C223.767 135.842 214.599 153.03 214.855 153.949" stroke="#E3AAB6" stroke-width="6" stroke-linecap="round" stroke-linejoin="round"/>
<path d="M223.768 135.842C223.768 135.842 215.226 163.995 190.753 175.002C183.218 177.26 175.434 180.178 167.908 182.434" stroke="#E3AAB6" stroke-width="2" stroke-miterlimit="10" stroke-linecap="round"/>
<path d="M216.958 152.259C216.958 152.259 211.627 166.441 195.4 172.606L216.958 152.259Z" fill="#E3AAB6"/>
</g>
<defs>
<clipPath id="clip0_125_1389">
<rect width="211.795" height="244.525" fill="white" transform="matrix(-0.964461 0.264233 0.268066 0.963403 205.041 0)"/>
</clipPath>
</defs>
</svg>
