<svg width="148" height="169" viewBox="0 0 148 169" fill="none" xmlns="http://www.w3.org/2000/svg">
<g opacity="0.22">
<g clip-path="url(#clip0_129_1907)">
<rect width="143.078" height="165.189" transform="matrix(0.999856 -0.0169035 0.018282 0.999831 1.09863 3.22104)" fill="white"/>
<path d="M67.232 147.077C62.6696 148.322 58.1765 150.027 53.5198 150.681C48.9476 151.321 44.3019 151.345 39.7237 150.752C35.2206 150.153 30.8649 148.492 26.4863 147.157C26.0507 147.026 25.9076 146.047 25.6306 145.461L25.6022 145.489C29.9475 146.581 34.2387 148.225 38.6511 148.599C42.7421 148.945 46.9626 147.946 51.1222 147.484C51.8299 147.406 52.5115 146.955 53.2046 146.952C61.3728 146.89 67.3092 142.348 73.5592 138.282C75.779 136.845 78.6906 136.389 80.9531 135.002C84.0405 133.11 86.8347 130.795 89.6983 128.594C93.6251 125.576 97.6109 122.621 101.361 119.414C105.856 115.562 110.201 111.55 114.416 107.426C115.428 106.436 115.651 104.743 116.245 103.375C114.72 103.169 112.914 103.38 111.74 102.671C109.599 101.397 106.979 99.9059 106.095 97.9033C103.439 91.8144 101.618 85.4103 99.2905 79.1864C97.1788 73.546 94.5948 68.0521 92.649 62.3668C90.1986 55.2265 87.7281 48.0445 86.1566 40.7147C85.2346 36.4454 84.9653 31.5417 86.3025 27.463C88.2903 21.407 83.1346 19.6875 80.4279 16.6106C77.6231 13.43 74.3696 10.2781 70.6137 8.25188C67.4087 6.52344 63.0433 5.38674 59.5137 5.91314C56.8001 6.31735 54.1907 9.43288 52.2424 11.8537C49.6511 15.0863 47.7103 18.7988 45.5579 22.3432C43.032 26.5203 40.9803 31.0055 38.0059 34.874C35.0316 38.7425 31.23 41.9384 27.7868 45.4324L27.8161 45.459C29.294 43.6273 31.0143 41.8969 32.1906 39.8956C34.3006 36.3158 36.0738 32.564 37.9992 28.8879C39.7571 25.5278 41.4046 22.1003 43.3343 18.8337C45.4324 15.3052 47.2308 11.3512 50.2424 8.64144C53.5097 5.7045 57.9688 2.31681 62.0158 2.19117C66.2682 2.05906 70.7376 5.37711 74.9291 7.53452C77.4784 8.84947 79.7993 10.6621 81.9257 12.5353C83.5109 13.9478 84.7506 15.7637 85.9029 17.5389C88.8745 22.1198 91.6864 17.9711 94.6849 17.7066C98.3498 17.3856 103.265 16.9924 105.635 18.8614C110.997 23.0948 115.513 28.4446 119.613 33.8467C121.842 36.781 123.21 40.6634 123.757 44.2796C125.005 52.5002 126.1 60.8196 126.098 69.1004C126.097 74.3218 123.969 79.5371 122.874 84.7709C122.632 85.9283 122.818 87.1597 122.637 88.3342C122.121 91.6823 121.776 95.0787 120.895 98.3427C119.614 103.035 123.948 102.787 126.344 104.312C132.161 108.02 132.726 102.397 134.791 99.8753C135.105 99.4816 133.013 97.5326 132.339 96.1709C131.756 94.9763 130.898 93.1479 131.43 92.4343C132.248 91.3425 134.247 90.315 135.566 90.4764C136.884 90.6377 138.091 92.2404 139.237 93.302C140.269 94.2632 141.008 95.5455 142.142 96.3514C142.984 96.9394 144.256 97.0083 145.339 97.3061C144.161 98.1541 142.983 99.7218 141.806 99.7236C136.736 99.725 137.394 104.095 135.379 106.421C132.552 109.712 129.527 112.949 126.165 115.758C122.489 118.831 118.445 121.558 114.346 124.139C108.554 127.784 102.733 131.445 96.5997 134.532C92.8701 136.402 88.1283 136.615 84.5789 138.686C80.5183 141.058 77.5094 144.964 73.6118 147.649C69.8377 150.245 65.7095 152.601 61.3818 154.228C55.2663 156.523 48.8223 158.053 42.5191 159.913C42.1999 160.005 41.9081 160.188 41.5852 160.251C34.0809 161.702 26.5384 162.992 19.0894 164.66C16.3539 165.272 13.8769 166.856 11.2156 167.84C10.1606 168.228 8.92878 168.243 7.77157 168.305C7.59193 168.308 7.1135 167.413 7.21461 167.327C8.21494 166.406 9.15203 165.186 10.3763 164.756C16.3386 162.68 22.3512 160.72 28.4182 158.931C31.5746 158.002 34.8596 157.434 38.1151 156.834C42.7713 155.979 47.681 155.826 52.0619 154.301C57.3323 152.468 62.1619 149.511 67.18 147.038C67.9001 146.936 68.7062 146.976 69.2973 146.662C69.5452 146.532 69.3429 145.647 69.3458 145.105L67.232 147.077ZM123.75 61.7868C122.965 55.874 122.657 51.6636 121.773 47.5622C121.107 44.4569 120.106 41.291 118.531 38.5142C116.432 34.8128 113.271 31.6353 111.226 27.9179C108.542 23.0611 101.64 19.221 95.8964 20.083C92.9812 20.5207 91.3033 24.569 92.575 26.9083C95.4905 32.2791 98.3552 37.684 100.656 43.2911C102.731 48.3569 104.032 53.7039 105.668 58.9277C106.445 61.3988 107.104 63.908 107.998 66.341C109.94 71.6019 112.36 76.7342 113.902 82.0891C115.209 86.5838 115.56 91.3415 116.421 95.9672C116.531 96.5495 117.172 97.0446 117.567 97.5799C117.813 97.0247 118.211 96.485 118.281 95.9147C119.005 89.9283 119.463 83.9102 120.429 77.9588C121.396 72.0074 122.875 66.0323 123.763 61.7866L123.75 61.7868ZM112.217 92.6447C111.32 88.8146 110.373 83.8922 108.979 79.0858C107.229 73.0509 105.092 67.1068 103.16 61.1171C102.296 58.4427 101.566 55.7239 100.68 53.0619C100 50.9656 99.2336 48.8707 98.3207 46.8506C96.3353 42.3915 94.281 37.9616 92.1576 33.561C91.7305 32.6649 90.8835 31.9686 90.2306 31.1847C89.5451 32.1207 88.1901 33.1252 88.286 33.9818C88.7827 38.3336 89.3059 42.7331 90.49 46.9499C91.918 52.0447 93.9879 56.9722 95.8469 61.9484C97.6653 66.8138 99.5858 71.6444 101.423 76.5035C102.29 78.7924 102.905 81.1759 103.918 83.4051C105.923 87.7977 108.11 92.1089 110.221 96.4545C110.597 97.225 110.964 97.9987 111.338 98.7723C111.643 97.9089 112.074 97.0615 112.237 96.1735C112.396 95.3879 112.252 94.5472 112.217 92.6447ZM95.5602 131.204C99.8455 128.838 104.207 126.776 108.144 124.153C112.081 121.53 115.739 118.328 119.395 115.288C120.088 114.719 120.965 113.379 120.697 112.95C120.078 111.922 118.877 111.174 117.799 110.467C117.672 110.385 116.831 111.215 116.351 111.648C115.505 112.409 114.731 113.244 113.842 113.954C107.549 118.99 101.23 123.993 94.9495 129.044C94.7436 129.224 94.5777 129.441 94.4615 129.682C94.3452 129.922 94.281 130.182 94.2725 130.446C94.2868 130.702 95.061 130.927 95.5602 131.204ZM123.834 110.582L126.768 108.903C125.504 108.06 124.299 107.096 122.924 106.469C122.601 106.321 121.685 107.297 121.042 107.753L123.834 110.582ZM73.2788 144.005C72.7851 143.676 72.5164 143.374 72.2109 143.334C71.9857 143.305 71.7091 143.619 71.4554 143.78C71.6654 144.036 71.8399 144.451 72.1103 144.501C72.3807 144.55 72.7156 144.262 73.2788 144.005ZM90.3779 131.542C90.2721 131.753 90.1973 131.976 90.1558 132.205C90.2012 132.374 90.278 132.534 90.3826 132.677C90.571 132.58 90.7393 132.451 90.8795 132.298C90.9296 132.231 90.714 132.021 90.3842 131.533L90.3779 131.542Z" fill="#F06D7D"/>
<path d="M42.7243 111.965C53.5297 113.466 65.3446 113.139 76.232 113.154C80.2911 113.161 84.349 113.977 88.4173 114.309C89.0054 114.359 89.6523 113.767 90.2727 113.474C89.653 113.279 89.0242 113.106 88.414 112.903C83.8177 111.243 79.2428 109.529 74.622 107.933C72.142 107.071 69.5332 106.537 67.0591 105.652C62.4699 104.028 57.9666 102.192 53.3743 100.577C50.9973 99.7382 48.5509 98.7828 46.0631 98.5509C38.41 97.8311 30.7183 97.4552 23.0453 96.8743C22.181 96.8106 21.3594 96.2735 20.5161 95.9565C21.3703 95.6409 22.2143 95.1208 23.0673 95.0913C27.5565 94.9311 32.1296 94.4413 36.5412 94.9479C41.1937 95.4714 45.7172 97.0089 50.2999 98.0968C53.123 98.7687 56.0038 99.2621 58.7598 100.122C63.6262 101.639 68.4043 103.413 73.2463 104.996C77.5526 106.411 81.856 107.847 86.2351 109.028C89.479 109.901 92.9921 110.052 96.0807 111.207C97.1791 111.616 98.0205 114.111 97.8508 115.535C97.7226 116.597 95.7551 118.322 94.6541 118.299C83.8772 118.008 73.1089 117.486 62.3485 116.87C57.0261 116.565 47.2464 114.303 41.9564 113.667C40.9402 113.543 44.5336 114.226 43.5598 113.613L42.7243 111.965Z" fill="#F06D7D"/>
<path d="M5.77617 73.5676C5.31628 75.7916 4.89262 77.8916 4.45287 79.9887C4.06791 77.8874 3.41389 75.8117 3.37552 73.7136C3.33567 71.5342 3.87316 69.342 4.15723 67.154C4.70308 69.2797 5.22967 71.4058 5.77617 73.5676Z" fill="#F06D7D"/>
<path d="M43.5981 113.606C40.362 112.987 37.1076 112.418 33.9046 111.677C33.4921 111.582 33.3198 110.579 33.0364 109.997L33.0112 110.024C36.2538 110.65 39.5115 111.221 42.7242 111.968C43.127 112.064 43.2928 113.057 43.5697 113.637L43.5981 113.606Z" fill="#F06D7D"/>
<path d="M8.5832 115.108L7.23019 119.729C6.82279 117.453 6.30008 115.188 6.07203 112.895C5.99765 112.161 6.68567 111.358 7.04373 110.584L8.5832 115.108Z" fill="#F06D7D"/>
<path d="M20.3599 100.741L16.2676 98.9161L16.2969 98.9427L16.2619 97.0252L16.2303 97.0528C19.5646 96.3791 20.897 97.6514 20.3316 100.769L20.3599 100.741Z" fill="#F06D7D"/>
<path d="M16.2607 98.9162L12.9448 102.531L12.0806 101.417L16.2899 98.9368L16.2607 98.9162Z" fill="#F06D7D"/>
<path d="M26.9176 106.309L22.4058 102.606L22.3774 102.634L26.8796 106.337C35.2907 112.717 26.9176 106.309 26.9176 106.309Z" fill="#F06D7D"/>
<path d="M11.0888 57.3679L15.4495 53.5091L15.4201 53.4825L11.0594 57.3413L11.0888 57.3679Z" fill="#F06D7D"/>
<path d="M7.12297 61.22L11.0891 57.3679L11.0597 57.3413L7.0936 61.1934L7.12297 61.22Z" fill="#F06D7D"/>
<path d="M15.4502 53.5092L19.4604 51.5473L19.4311 51.5207L15.4272 53.4824L15.4502 53.5092Z" fill="#F06D7D"/>
<path d="M7.09326 61.1934L6.19777 64.8642C5.86874 64.418 5.12223 63.7772 5.24348 63.5644C5.72521 62.7101 6.4725 61.9899 7.12583 61.22L7.09326 61.1934Z" fill="#F06D7D"/>
<path d="M7.57235 85.8048C6.89459 85.0635 6.11507 84.372 5.60567 83.5375C5.47346 83.326 6.1864 82.6575 6.51169 82.1973L7.54077 85.8324L7.57235 85.8048Z" fill="#F06D7D"/>
<path d="M16.2552 97.0252L14.1715 93.2694L14.1431 93.297L16.2236 97.0529L16.2552 97.0252Z" fill="#F06D7D"/>
<path d="M9.90128 104.709L9.00535 108.355C8.67621 107.903 7.93602 107.256 8.06351 107.034C8.5391 106.195 9.29308 105.49 9.94669 104.735L9.90128 104.709Z" fill="#F06D7D"/>
<path d="M33.0425 109.997L28.9664 108.181L28.938 108.208L33.0111 110.03L33.0425 109.997Z" fill="#F06D7D"/>
<path d="M7.8592 123.78L9.2151 121.95C9.56613 122.547 10.1797 123.111 10.1872 123.699C10.1947 124.286 9.56604 124.823 9.21375 125.386L7.8592 123.78Z" fill="#F06D7D"/>
<path d="M16.9087 134.531C17.5896 135.269 18.369 135.954 18.8751 136.783C19.0074 136.997 18.2977 137.669 17.9757 138.132C17.6262 136.921 17.2832 135.712 16.9467 134.503L16.9087 134.531Z" fill="#F06D7D"/>
<path d="M19.4599 51.5473C20.1866 50.9328 20.8468 50.1839 21.6728 49.7363C21.9143 49.6058 22.6458 50.301 23.1745 50.6143L19.4209 51.5209L19.4599 51.5473Z" fill="#F06D7D"/>
<path d="M21.1141 142.009C20.4391 141.418 19.6622 140.871 19.1552 140.163C19.0202 139.975 19.716 139.25 20.0317 138.79C20.381 139.874 20.7323 140.956 21.0858 142.036L21.1141 142.009Z" fill="#F06D7D"/>
<path d="M25.8059 47.6249L24.4761 49.4751L23.5786 48.6502L25.8356 47.6665L25.8059 47.6249Z" fill="#F06D7D"/>
<path d="M25.6225 145.723L23.1629 143.874L23.1314 143.902L25.5942 145.751L25.6225 145.723Z" fill="#F06D7D"/>
<path d="M9.93043 104.735L10.8988 102.945L11.78 103.756L9.90107 104.709L9.93043 104.735Z" fill="#F06D7D"/>
<path d="M27.795 45.6942L25.812 47.6248L25.8414 47.6514L27.8243 45.7178L27.795 45.6942Z" fill="#F06D7D"/>
<path d="M28.967 108.181C28.2818 107.56 27.5988 106.938 26.9178 106.315L26.8862 106.343L28.9386 108.208L28.967 108.181Z" fill="#F06D7D"/>
<path d="M21.0797 142.039L23.132 143.905L23.1636 143.877L21.1144 142.009L21.0797 142.039Z" fill="#F06D7D"/>
<path d="M7.5376 85.8325L9.45218 86.8299L8.71142 87.5561L7.57239 85.8048L7.5376 85.8325Z" fill="#F06D7D"/>
<path d="M14.1714 93.2694L12.2303 92.3989L13.0713 91.5385L14.1301 93.2882L14.1714 93.2694Z" fill="#F06D7D"/>
<path d="M20.3247 100.769L22.3771 102.634L22.4055 102.606C21.7245 101.982 21.0404 101.36 20.3531 100.741L20.3247 100.769Z" fill="#F06D7D"/>
<path d="M10.8376 91.7087C10.3718 91.1535 9.8973 90.8213 9.93775 90.5767C9.9865 90.2597 10.4101 89.9123 10.7634 89.7557C10.8907 89.6994 11.4894 90.15 11.4968 90.3787C11.5124 90.7097 11.198 91.0613 10.8376 91.7087Z" fill="#F06D7D"/>
<path d="M102.685 84.5913L102.347 83.6515" stroke="#F06D7D" stroke-width="2" stroke-linecap="round" stroke-linejoin="round"/>
<path d="M100.598 80.8385L100.226 78.0052" stroke="#F06D7D" stroke-width="2" stroke-linecap="round" stroke-linejoin="round"/>
<path d="M91.6734 56.3729L91.3545 55.4298" stroke="#F06D7D" stroke-width="2" stroke-linecap="round" stroke-linejoin="round"/>
<path d="M89.5722 51.8616L89.2188 49.028" stroke="#F06D7D" stroke-width="2" stroke-linecap="round" stroke-linejoin="round"/>
<path d="M87.4161 44.3249L87.0488 40.7327" stroke="#F06D7D" stroke-width="2" stroke-linecap="round" stroke-linejoin="round"/>
<path d="M87.0166 33.3468L87.28 31.2586" stroke="#F06D7D" stroke-width="2" stroke-linecap="round" stroke-linejoin="round"/>
<path d="M99.7725 46.7598L100.112 48.8378" stroke="#F06D7D" stroke-width="2" stroke-linecap="round" stroke-linejoin="round"/>
<path d="M101.895 52.4121L102.234 54.4901" stroke="#F06D7D" stroke-width="2" stroke-linecap="round" stroke-linejoin="round"/>
<path d="M113.048 88.5836C113.156 88.8979 113.261 89.2093 113.367 89.5237" stroke="#F06D7D" stroke-width="2" stroke-linecap="round" stroke-linejoin="round"/>
<path d="M67.0181 4.80464L65.6016 4.54553" stroke="#F06D7D" stroke-width="2" stroke-linecap="round" stroke-linejoin="round"/>
<path d="M58.9478 4.75437L57.5384 5.06125" stroke="#F06D7D" stroke-width="2" stroke-linecap="round" stroke-linejoin="round"/>
<path d="M41.0818 26.5503L40.7976 27.5006" stroke="#F06D7D" stroke-width="2" stroke-linecap="round" stroke-linejoin="round"/>
<path d="M39.1339 30.3683L35.7163 36.4876" stroke="#F06D7D" stroke-width="2" stroke-linecap="round" stroke-linejoin="round"/>
<path d="M122.73 44.1073L123.077 46.5616" stroke="#F06D7D" stroke-width="2" stroke-linecap="round" stroke-linejoin="round"/>
<path d="M123.442 72.1204L123.229 76.1017" stroke="#F06D7D" stroke-width="2" stroke-linecap="round" stroke-linejoin="round"/>
<path d="M55.2456 155.557L52.2259 155.891" stroke="#F06D7D" stroke-width="2" stroke-linecap="round" stroke-linejoin="round"/>
<path d="M46 157.607L43.7854 157.928" stroke="#F06D7D" stroke-width="2" stroke-linecap="round" stroke-linejoin="round"/>
<path d="M36.7553 159.658L33.7356 159.992" stroke="#F06D7D" stroke-width="2" stroke-linecap="round" stroke-linejoin="round"/>
<path d="M27.5096 161.708L24.8909 162.035" stroke="#F06D7D" stroke-width="2" stroke-linecap="round" stroke-linejoin="round"/>
<path d="M19.8785 163.74L17.263 164.067" stroke="#F06D7D" stroke-width="2" stroke-linecap="round" stroke-linejoin="round"/>
<path d="M13.8468 165.724L12.0368 166.056" stroke="#F06D7D" stroke-width="2" stroke-linecap="round" stroke-linejoin="round"/>
<path d="M9.45826 167.692L8.04864 167.812" stroke="#F06D7D" stroke-width="2" stroke-linecap="round" stroke-linejoin="round"/>
<path d="M75.3342 106.548L72.7051 106.309" stroke="#F06D7D" stroke-width="2" stroke-linecap="round" stroke-linejoin="round"/>
<path d="M64.7793 102.938L61.7461 102.706" stroke="#F06D7D" stroke-width="2" stroke-linecap="round" stroke-linejoin="round"/>
<path d="M61.5439 102.71C60.5937 102.157 59.7127 101.355 58.6748 101.102C55.5387 100.33 52.3422 99.7726 49.1699 99.1307" stroke="#F06D7D" stroke-width="2" stroke-linecap="round" stroke-linejoin="round"/>
<path d="M48.9674 99.1341L40.2754 97.5767" stroke="#F06D7D" stroke-width="2" stroke-linecap="round" stroke-linejoin="round"/>
<path d="M42.6387 150.278L39.208 150.242" stroke="#F06D7D" stroke-width="2" stroke-linecap="round" stroke-linejoin="round"/>
<path d="M38.2107 95.7176L21.0605 95.9142" stroke="#F06D7D" stroke-width="2" stroke-linecap="round" stroke-linejoin="round"/>
<path d="M103.501 18.8644L101.789 19.083" stroke="#F06D7D" stroke-width="2" stroke-linecap="round" stroke-linejoin="round"/>
<path d="M4.20312 67.888L4.4108 79.2457" stroke="#F06D7D" stroke-width="2" stroke-linecap="round" stroke-linejoin="round"/>
<path d="M142.984 97.8217L145.603 97.681" stroke="#F06D7D" stroke-width="2" stroke-linecap="round" stroke-linejoin="round"/>
<path d="M7.0166 111.397L7.21019 121.984" stroke="#F06D7D" stroke-width="2" stroke-linecap="round" stroke-linejoin="round"/>
<path d="M37.5663 148.755L30.6982 148.501" stroke="#F06D7D" stroke-width="2" stroke-linecap="round" stroke-linejoin="round"/>
<path d="M42.5572 112.687L37.9043 112.673" stroke="#F06D7D" stroke-width="2" stroke-linecap="round" stroke-linejoin="round"/>
<path d="M25.188 105.423L23.1357 103.564" stroke="#F06D7D" stroke-width="2" stroke-linecap="round" stroke-linejoin="round"/>
<path d="M36.4697 110.899L34.0479 110.94" stroke="#F06D7D" stroke-width="2" stroke-linecap="round" stroke-linejoin="round"/>
<path d="M9.23926 122.721L9.27388 124.614" stroke="#F06D7D" stroke-width="2" stroke-linecap="round" stroke-linejoin="round"/>
<path d="M8.92773 105.683L8.96236 107.576" stroke="#F06D7D" stroke-width="2" stroke-linecap="round" stroke-linejoin="round"/>
<path d="M18.4503 52.4978L16.4326 52.532" stroke="#F06D7D" stroke-width="2" stroke-linecap="round" stroke-linejoin="round"/>
<path d="M6.49805 82.9985L6.53267 84.8919" stroke="#F06D7D" stroke-width="2" stroke-linecap="round" stroke-linejoin="round"/>
<path d="M6.11719 62.1735L6.15181 64.067" stroke="#F06D7D" stroke-width="2" stroke-linecap="round" stroke-linejoin="round"/>
<path d="M20.043 139.582L20.0705 141.087" stroke="#F06D7D" stroke-width="2" stroke-linecap="round" stroke-linejoin="round"/>
<path d="M15.8691 132.076L15.8967 133.581" stroke="#F06D7D" stroke-width="2" stroke-linecap="round" stroke-linejoin="round"/>
<path d="M25.0831 95.8673C21.1208 96.159 17.3404 97.5537 14.2257 99.8727C11.1111 102.192 8.80386 105.33 7.59941 108.885C6.39496 112.44 6.34806 116.251 7.46471 119.829C8.58135 123.408 10.8107 126.591 13.8675 128.972C13.8675 128.972 17.829 141.886 26.6161 146.017C35.4033 150.147 26.7812 145.918 26.628 146.667L28.6457 146.633" stroke="#F06D7D" stroke-width="7" stroke-linecap="round" stroke-linejoin="round"/>
<path d="M35.713 36.4876C35.713 36.4876 29.0573 46.796 18.4418 52.0012C9.28609 56.4921 3.49825 64.5997 3.33025 71.3807C2.95363 85.8799 15.1771 94.213 15.1771 94.213C15.1887 94.8451 24.4413 104.252 24.4531 104.896" stroke="#F06D7D" stroke-width="6" stroke-linecap="round" stroke-linejoin="round"/>
<path d="M15.1885 94.8451C15.1885 94.8451 26.1519 111.48 44.1214 113.98C49.4357 114.017 55.0393 114.434 60.3472 114.47" stroke="#F06D7D" stroke-width="2" stroke-miterlimit="10" stroke-linecap="round"/>
<path d="M22.7656 104.199C22.7656 104.199 28.9541 112.384 40.6506 113.307L22.7656 104.199Z" fill="#F06D7D"/>
</g>
</g>
<defs>
<clipPath id="clip0_129_1907">
<rect width="143.078" height="165.189" fill="white" transform="matrix(0.999856 -0.0169035 0.018282 0.999831 1.09863 3.22104)"/>
</clipPath>
</defs>
</svg>
