<svg width="50" height="50" viewBox="0 0 50 50" fill="none" xmlns="http://www.w3.org/2000/svg">
<path d="M41.1206 21.6522C41.0642 22.7967 40.1959 24.2097 38.7967 25.5677V43.4632C38.7951 43.924 38.6136 44.3146 38.3068 44.6198C37.9986 44.9189 37.5988 45.0959 37.1288 45.0989H7.96485C7.49795 45.0959 7.09658 44.9188 6.78838 44.6198C6.48164 44.3146 6.30166 43.924 6.3001 43.4632V14.8651C6.30166 14.4058 6.48164 14.0137 6.78838 13.7085C7.09658 13.4094 7.49795 13.2324 7.96485 13.2294H23.454C24.7067 11.5845 26.167 9.89989 27.8211 8.35575C27.8287 8.34657 27.8349 8.33739 27.8425 8.32831H7.96485C6.13379 8.32675 4.45078 9.06376 3.25293 10.2418C2.04903 11.4198 1.29824 13.0678 1.29981 14.8652V43.4633C1.29824 45.2607 2.04903 46.9118 3.25293 48.0867C4.45069 49.2645 6.13379 50 7.96485 50H37.129C38.9631 50 40.6462 49.2645 41.844 48.0865C43.0448 46.9116 43.7971 45.2605 43.7955 43.4631V19.87C43.7955 19.87 43.7833 19.8548 43.7635 19.8394C43.0051 20.4895 42.1216 21.109 41.1206 21.6522Z" fill="#FFEAEA"/>
<path d="M48.6389 0C48.6389 0 47.1069 2.28887 37.1002 5.67471C26.8966 9.12783 20.616 23.1751 20.616 23.1751C19.1039 26.0529 13.127 38.0097 13.127 38.0097C11.4806 41.098 14.4972 42.923 16.2672 39.7339C19.6592 33.612 21.8489 28.0182 27.0064 27.8595C34.5305 27.6275 39.6757 21.0571 38.0568 21.3623C35.9266 22.29 31.23 21.4325 33.9964 21.0053C40.637 20.4728 44.7294 15.4815 43.3958 15.1429C41.0414 16.0492 38.8456 15.1887 38.4154 14.9292C50.1358 13.504 48.6389 0 48.6389 0Z" fill="#FFEAEA"/>
</svg>
