<svg width="14" height="13" viewBox="0 0 14 13" fill="none" xmlns="http://www.w3.org/2000/svg">
<path fill-rule="evenodd" clip-rule="evenodd" d="M7.54851 2.27891V2.74719C7.53946 3.1625 6.81921 3.39922 6.59153 2.94547C6.56121 2.88314 6.54512 2.81562 6.54428 2.74719V2.27891H5.03844C4.65193 2.26156 4.39308 1.79047 4.65897 1.50406C4.75044 1.40563 4.82433 1.35219 5.03844 1.34234C5.54005 1.34234 6.04217 1.34094 6.54428 1.33812V0.874531C6.54295 0.824602 6.55147 0.774871 6.56941 0.727813C6.63576 0.539844 6.83429 0.40625 7.05645 0.40625C7.32434 0.416094 7.54248 0.603125 7.54851 0.874531V1.3325C8.55223 1.32687 9.55646 1.32172 10.5607 1.32641V0.874531C10.5657 0.624219 10.7617 0.417031 11.0527 0.40625H11.0723C11.3407 0.416094 11.5589 0.603125 11.5644 0.874531V1.33484L12.1037 1.34281C12.8732 1.36531 13.5578 1.98266 13.5724 2.72984C13.5915 5.55031 13.5915 8.37125 13.5724 11.1922C13.5583 11.9164 12.8863 12.5652 12.0851 12.5792C8.72614 12.5984 5.36665 12.5984 2.00767 12.5792C1.23414 12.5656 0.535507 11.9516 0.520428 11.1922C0.501329 8.37125 0.501329 5.55031 0.520428 2.72984C0.534501 2.00047 1.20449 1.3475 2.02476 1.34234H2.52838V0.874531C2.52679 0.824587 2.53532 0.774811 2.55351 0.727813C2.61986 0.539844 2.81839 0.40625 3.04004 0.40625C3.30844 0.416094 3.52657 0.603125 3.5321 0.874531V2.74719C3.52356 3.16203 2.82392 3.39453 2.58417 2.96234C2.54806 2.89559 2.52897 2.82196 2.52838 2.74719V2.27703C2.35682 2.27578 2.18525 2.27641 2.0137 2.27891C1.75887 2.28641 1.53219 2.49453 1.52415 2.73547C1.46811 5.5521 1.46811 8.36946 1.52415 11.1861C1.53219 11.4242 1.75536 11.6352 2.0137 11.6427C5.36854 11.7008 8.72425 11.7008 12.0791 11.6427C12.3339 11.6352 12.5606 11.427 12.5686 11.1861C12.6244 8.36984 12.6244 5.55172 12.5686 2.73547C12.561 2.61444 12.5051 2.50046 12.4119 2.41596C12.3187 2.33146 12.1949 2.28256 12.065 2.27891H11.5644V2.74719C11.5559 3.15828 10.8542 3.39031 10.6165 2.96234C10.5806 2.89551 10.5615 2.82193 10.5607 2.74719V2.27891H7.54851ZM3.02999 9.77C3.0973 9.76801 3.16435 9.77866 3.22716 9.80132C3.28997 9.82397 3.34726 9.85816 3.39562 9.90186C3.44399 9.94556 3.48244 9.99788 3.5087 10.0557C3.53497 10.1135 3.5485 10.1757 3.5485 10.2385C3.5485 10.3013 3.53497 10.3635 3.5087 10.4213C3.48244 10.4791 3.44399 10.5315 3.39562 10.5752C3.34726 10.6189 3.28997 10.6531 3.22716 10.6757C3.16435 10.6984 3.0973 10.709 3.02999 10.707C2.8995 10.7032 2.77575 10.6521 2.6849 10.5647C2.59406 10.4772 2.54327 10.3603 2.54327 10.2385C2.54327 10.1168 2.59406 9.99979 2.6849 9.91234C2.77575 9.8249 2.8995 9.77385 3.02999 9.77ZM5.03844 9.77C5.10627 9.76723 5.174 9.77731 5.23754 9.79963C5.30108 9.82194 5.35912 9.85604 5.40814 9.89984C5.45716 9.94365 5.49616 9.99627 5.52278 10.0545C5.5494 10.1128 5.56309 10.1755 5.56302 10.2388C5.56296 10.3021 5.54913 10.3647 5.52239 10.4229C5.49564 10.4811 5.45653 10.5337 5.40741 10.5774C5.35829 10.6211 5.30019 10.6551 5.2366 10.6773C5.17301 10.6995 5.10526 10.7095 5.03744 10.7066C4.90816 10.701 4.78615 10.6492 4.6968 10.5619C4.60745 10.4746 4.55766 10.3585 4.55779 10.2378C4.55792 10.1171 4.60796 10.0011 4.6975 9.914C4.78703 9.82685 4.90915 9.77527 5.03844 9.77ZM7.04639 9.77C7.17568 9.7754 7.29775 9.82709 7.38718 9.91432C7.47662 10.0015 7.52654 10.1176 7.52654 10.2383C7.52654 10.359 7.47662 10.475 7.38718 10.5622C7.29775 10.6495 7.17568 10.7012 7.04639 10.7066C6.91711 10.7012 6.79504 10.6495 6.70561 10.5622C6.61617 10.475 6.56625 10.359 6.56625 10.2383C6.56625 10.1176 6.61617 10.0015 6.70561 9.91432C6.79504 9.82709 6.91711 9.7754 7.04639 9.77ZM3.02999 7.89734C3.09723 7.89536 3.16422 7.906 3.22696 7.92863C3.28971 7.95125 3.34694 7.98541 3.39526 8.02907C3.44358 8.07273 3.482 8.125 3.50823 8.18277C3.53447 8.24055 3.54799 8.30265 3.54799 8.36539C3.54799 8.42813 3.53447 8.49024 3.50823 8.54801C3.482 8.60579 3.44358 8.65805 3.39526 8.70171C3.34694 8.74537 3.28971 8.77953 3.22696 8.80216C3.16422 8.82479 3.09723 8.83542 3.02999 8.83344C2.89964 8.82959 2.776 8.77859 2.68525 8.69124C2.5945 8.60388 2.54376 8.48702 2.54376 8.36539C2.54376 8.24376 2.5945 8.1269 2.68525 8.03955C2.776 7.95219 2.89964 7.90119 3.02999 7.89734ZM5.03844 7.89734C5.17155 7.89734 5.2992 7.94666 5.39331 8.03443C5.48743 8.12221 5.54031 8.24126 5.54031 8.36539C5.54031 8.48952 5.48743 8.60857 5.39331 8.69635C5.2992 8.78413 5.17155 8.83344 5.03844 8.83344C4.90534 8.83344 4.77769 8.78413 4.68357 8.69635C4.58946 8.60857 4.53658 8.48952 4.53658 8.36539C4.53658 8.24126 4.58946 8.12221 4.68357 8.03443C4.77769 7.94666 4.90534 7.89734 5.03844 7.89734ZM7.04639 7.89734C7.1137 7.89536 7.18075 7.90601 7.24356 7.92866C7.30637 7.95131 7.36366 7.9855 7.41203 8.0292C7.46039 8.07291 7.49885 8.12523 7.52511 8.18306C7.55137 8.24089 7.5649 8.30305 7.5649 8.36586C7.5649 8.42866 7.55137 8.49083 7.52511 8.54866C7.49885 8.60649 7.46039 8.65881 7.41203 8.70252C7.36366 8.74622 7.30637 8.78041 7.24356 8.80306C7.18075 8.82571 7.1137 8.83636 7.04639 8.83438C6.91591 8.83053 6.79215 8.77948 6.70131 8.69203C6.61047 8.60459 6.55967 8.48761 6.55967 8.36586C6.55967 8.24411 6.61047 8.12713 6.70131 8.03969C6.79215 7.95224 6.91591 7.90119 7.04639 7.89734ZM9.05435 7.89734C9.12166 7.89536 9.1887 7.90601 9.25151 7.92866C9.31432 7.95131 9.37161 7.9855 9.41998 8.0292C9.46834 8.07291 9.5068 8.12523 9.53306 8.18306C9.55932 8.24089 9.57285 8.30305 9.57285 8.36586C9.57285 8.42866 9.55932 8.49083 9.53306 8.54866C9.5068 8.60649 9.46834 8.65881 9.41998 8.70252C9.37161 8.74622 9.31432 8.78041 9.25151 8.80306C9.1887 8.82571 9.12166 8.83636 9.05435 8.83438C8.92386 8.83053 8.8001 8.77948 8.70926 8.69203C8.61842 8.60459 8.56762 8.48761 8.56762 8.36586C8.56762 8.24411 8.61842 8.12713 8.70926 8.03969C8.8001 7.95224 8.92386 7.90119 9.05435 7.89734ZM11.0623 7.89734C11.1295 7.89536 11.1965 7.906 11.2593 7.92863C11.322 7.95125 11.3793 7.98541 11.4276 8.02907C11.4759 8.07273 11.5143 8.125 11.5405 8.18277C11.5668 8.24055 11.5803 8.30265 11.5803 8.36539C11.5803 8.42813 11.5668 8.49024 11.5405 8.54801C11.5143 8.60579 11.4759 8.65805 11.4276 8.70171C11.3793 8.74537 11.322 8.77953 11.2593 8.80216C11.1965 8.82479 11.1295 8.83542 11.0623 8.83344C10.9319 8.82959 10.8083 8.77859 10.7176 8.69124C10.6268 8.60388 10.5761 8.48702 10.5761 8.36539C10.5761 8.24376 10.6268 8.1269 10.7176 8.03955C10.8083 7.95219 10.9319 7.90119 11.0623 7.89734ZM5.03844 6.02469C5.10432 6.02469 5.16954 6.03679 5.2304 6.0603C5.29126 6.08381 5.34656 6.11827 5.39314 6.16171C5.43971 6.20515 5.47666 6.25672 5.50187 6.31348C5.52708 6.37023 5.54005 6.43107 5.54005 6.4925C5.54005 6.55393 5.52708 6.61477 5.50187 6.67152C5.47666 6.72828 5.43971 6.77985 5.39314 6.82329C5.34656 6.86673 5.29126 6.90119 5.2304 6.9247C5.16954 6.94821 5.10432 6.96031 5.03844 6.96031C4.90541 6.96031 4.77782 6.91103 4.68375 6.82329C4.58968 6.73556 4.53683 6.61657 4.53683 6.4925C4.53683 6.36843 4.58968 6.24944 4.68375 6.16171C4.77782 6.07398 4.90541 6.02469 5.03844 6.02469ZM7.04639 6.02469C7.11422 6.02186 7.18196 6.03187 7.24553 6.05413C7.30909 6.07638 7.36716 6.11042 7.41623 6.15418C7.46531 6.19795 7.50436 6.25053 7.53104 6.30876C7.55773 6.36698 7.57148 6.42965 7.57148 6.49297C7.57148 6.55629 7.55773 6.61896 7.53104 6.67718C7.50436 6.73541 7.46531 6.78799 7.41623 6.83175C7.36716 6.87552 7.30909 6.90955 7.24553 6.93181C7.18196 6.95407 7.11422 6.96408 7.04639 6.96125C6.91711 6.95585 6.79504 6.90416 6.70561 6.81693C6.61617 6.7297 6.56625 6.61366 6.56625 6.49297C6.56625 6.37228 6.61617 6.25624 6.70561 6.16901C6.79504 6.08178 6.91711 6.03008 7.04639 6.02469ZM9.05435 6.02469C9.12218 6.02186 9.18992 6.03187 9.25348 6.05413C9.31704 6.07638 9.37511 6.11042 9.42419 6.15418C9.47326 6.19795 9.51231 6.25053 9.539 6.30876C9.56568 6.36698 9.57943 6.42965 9.57943 6.49297C9.57943 6.55629 9.56568 6.61896 9.539 6.67718C9.51231 6.73541 9.47326 6.78799 9.42419 6.83175C9.37511 6.87552 9.31704 6.90955 9.25348 6.93181C9.18992 6.95407 9.12218 6.96408 9.05435 6.96125C8.92507 6.95585 8.803 6.90416 8.71356 6.81693C8.62412 6.7297 8.5742 6.61366 8.5742 6.49297C8.5742 6.37228 8.62412 6.25624 8.71356 6.16901C8.803 6.08178 8.92507 6.03008 9.05435 6.02469ZM11.0623 6.02469C11.1954 6.02463 11.3231 6.07388 11.4172 6.16161C11.5114 6.24934 11.5643 6.36837 11.5644 6.4925C11.5645 6.61663 11.5117 6.73571 11.4176 6.82353C11.3235 6.91135 11.1959 6.96072 11.0628 6.96078C10.9969 6.96081 10.9316 6.94874 10.8707 6.92524C10.8098 6.90175 10.7545 6.8673 10.7079 6.82386C10.6612 6.78042 10.6242 6.72884 10.599 6.67206C10.5737 6.61529 10.5607 6.55443 10.5607 6.49297C10.5607 6.4315 10.5736 6.37064 10.5988 6.31384C10.624 6.25704 10.6609 6.20543 10.7075 6.16194C10.7541 6.11846 10.8094 6.08396 10.8703 6.06041C10.9311 6.03686 10.9964 6.02472 11.0623 6.02469Z" fill="#D19264"/>
</svg>
