<svg width="204" height="205" viewBox="0 0 204 205" fill="none" xmlns="http://www.w3.org/2000/svg">
<ellipse cx="102" cy="99.3702" rx="102" ry="99.3702" fill="#FBBA7E"/>
<path d="M138.614 168.871H107.493C107.355 168.87 107.218 168.841 107.091 168.785C106.965 168.729 106.852 168.648 106.76 168.546C106.668 168.445 106.599 168.326 106.558 168.197C106.516 168.068 106.503 167.932 106.519 167.797V151.66L96.7908 151.567V167.704C96.7908 168.443 96.4025 168.871 95.8167 168.871H64.6768C64.4089 168.837 64.1629 168.708 63.9847 168.51C63.8065 168.312 63.7082 168.058 63.7082 167.794C63.7082 167.531 63.8065 167.276 63.9847 167.078C64.1629 166.88 64.4089 166.752 64.6768 166.717H94.8299V150.58C94.8137 150.446 94.8269 150.31 94.8684 150.18C94.9099 150.051 94.9789 149.932 95.0708 149.831C95.1627 149.73 95.2755 149.648 95.4019 149.592C95.5282 149.536 95.6652 149.507 95.804 149.506H107.481C107.619 149.507 107.756 149.536 107.882 149.592C108.008 149.648 108.121 149.73 108.212 149.831C108.303 149.933 108.372 150.052 108.412 150.181C108.453 150.31 108.465 150.446 108.448 150.58V166.717H138.608C138.876 166.752 139.122 166.88 139.3 167.078C139.478 167.276 139.576 167.531 139.576 167.794C139.576 168.058 139.478 168.312 139.3 168.51C139.122 168.708 138.876 168.837 138.608 168.871H138.614ZM127.708 167.481C127.462 167.491 127.223 167.406 127.041 167.244C126.86 167.083 126.752 166.857 126.74 166.618L123.429 133.965C117.788 139.135 111.759 139.346 111.371 139.346H91.9266C86.8756 139.602 82.1255 141.766 78.6837 145.379L76.2007 167.139C76.2007 167.76 75.2902 167.35 74.7045 167.139C74.1251 167.139 73.9277 167.76 74.1251 167.139L83.7771 73.8655C83.7771 73.2138 84.2737 73.6855 84.8595 73.9027C85.4389 73.9027 85.9673 73.5179 85.7699 74.1634L83.376 97.1281C89.017 92.1628 95.0145 91.8338 95.4029 91.8338L107.334 91.6724C107.334 91.6724 112.918 92.169 118.368 86.3533L117.196 74.0268C117.196 73.4062 117.247 74.1572 117.636 73.9462C118.215 73.9462 118.718 73.5365 118.909 73.9462L122.64 110.026V110.46L128.281 166.593C128.268 167.003 128.306 167.481 127.708 167.481ZM81.0331 123.209L79.0848 141.729C82.6574 138.692 87.1897 136.94 91.9266 136.764H111.383C111.383 136.764 117.801 136.764 123.054 130.948L121.106 111.993C115.465 117.163 109.645 117.381 109.244 117.381H93.6775C93.8748 117.176 86.483 117.176 81.0331 123.209ZM83.3697 99.5115L81.2304 119.994C84.7198 116.948 89.194 115.191 93.8748 115.028H109.435C109.435 115.028 115.662 115.028 120.895 109.213L118.756 88.1098C114.688 93.5531 107.665 93.4972 107.474 93.4972H95.8167C93.4364 93.6444 91.11 94.2521 88.973 95.2846C86.8361 96.3172 84.9313 97.754 83.3697 99.5115ZM158.071 74.0951H157.874L126.753 65.474C126.49 65.3798 126.268 65.1999 126.125 64.9646C125.983 64.7294 125.928 64.4533 125.97 64.1831C126.018 63.922 126.165 63.6883 126.382 63.5284C126.6 63.3686 126.87 63.2943 127.141 63.3203L158.268 71.9414C158.53 72.0367 158.751 72.2171 158.892 72.4523C159.034 72.6874 159.088 72.9629 159.045 73.2324C158.848 73.6731 158.459 74.0951 158.071 74.0951ZM45.2391 74.0951C44.8507 74.0951 44.4623 73.6607 44.265 73.2324C44.223 73.0979 44.21 72.9563 44.2269 72.8167C44.2438 72.677 44.2902 72.5423 44.3632 72.421C44.4362 72.2997 44.5342 72.1945 44.6509 72.1119C44.7677 72.0294 44.9008 71.9713 45.0417 71.9414L76.1688 63.3203C76.7546 63.1093 77.143 63.5376 77.334 64.1831C77.377 64.3176 77.3907 64.4594 77.3742 64.5993C77.3578 64.7393 77.3115 64.8744 77.2384 64.9959C77.1652 65.1175 77.0669 65.2228 76.9496 65.3051C76.8323 65.3874 76.6987 65.445 76.5572 65.474L45.4301 74.0951H45.2391ZM123.054 74.0951H80.2563C79.983 74.0665 79.7301 73.9404 79.5464 73.741C79.3627 73.5417 79.2611 73.2832 79.2611 73.0152C79.2611 72.7472 79.3627 72.4886 79.5464 72.2893C79.7301 72.0899 79.983 71.9638 80.2563 71.9352H83.1723V59.6584C85.3115 48.0271 91.9266 41.7831 101.636 41.7831C111.345 41.7831 117.979 48.2443 120.1 59.8756V71.9352H123.016C123.289 71.9638 123.542 72.0899 123.725 72.2893C123.909 72.4886 124.011 72.7472 124.011 73.0152C124.011 73.2832 123.909 73.5417 123.725 73.741C123.542 73.9404 123.289 74.0665 123.016 74.0951H123.054ZM108.461 71.9414H118.19V61.1666H108.461V71.9414ZM96.7908 71.9414H106.519V61.1666H96.7908V71.9414ZM85.1205 71.9414H94.8426V61.1666H85.1205V71.9414ZM107.493 59.0129H117.999C115.853 49.0822 110.212 43.9369 101.655 43.9369C93.0981 43.9369 87.4508 49.107 85.3115 59.0129H107.493ZM126.944 56.8592C126.555 56.8592 126.167 56.4309 125.97 55.9964C125.929 55.8615 125.917 55.7198 125.935 55.5801C125.952 55.4404 125.999 55.3058 126.073 55.1847C126.146 55.0635 126.245 54.9585 126.362 54.876C126.479 54.7936 126.612 54.7355 126.753 54.7055L157.874 46.0906C158.459 45.8733 158.848 46.3016 159.045 46.9533C159.083 47.0866 159.093 47.2261 159.074 47.3632C159.055 47.5004 159.008 47.6324 158.936 47.7513C158.863 47.8703 158.767 47.9736 158.652 48.0551C158.537 48.1367 158.407 48.1947 158.268 48.2257L127.141 56.8592H126.944ZM76.3662 56.8592H76.1688L45.0417 48.2257C44.7899 48.1313 44.5771 47.9584 44.4366 47.7339C44.2961 47.5093 44.2358 47.2458 44.265 46.9843C44.3118 46.7238 44.4579 46.4902 44.674 46.3302C44.89 46.1702 45.1601 46.0957 45.4301 46.1216L76.5572 54.7055C76.8192 54.8008 77.0395 54.9812 77.181 55.2163C77.3225 55.4515 77.3765 55.727 77.334 55.9964C77.143 56.4309 76.7737 56.8592 76.3662 56.8592Z" fill="white" stroke="white" stroke-width="3" stroke-miterlimit="10"/>
</svg>
