<svg width="25" height="25" viewBox="0 0 25 25" fill="none" xmlns="http://www.w3.org/2000/svg">
<path fill-rule="evenodd" clip-rule="evenodd" d="M7.29158 2.86456C5.60932 2.86456 4.0881 3.28501 2.98394 4.31029C1.86931 5.34531 1.302 6.88232 1.302 8.85415V16.1458C1.302 18.1177 1.86931 19.6547 2.98394 20.6897C4.0881 21.715 5.60932 22.1354 7.29158 22.1354H17.7083C19.3905 22.1354 20.9118 21.715 22.0159 20.6897C23.1305 19.6547 23.6978 18.1177 23.6978 16.1458V8.85415C23.6978 6.88232 23.1305 5.34531 22.0159 4.31029C20.9118 3.28501 19.3905 2.86456 17.7083 2.86456H7.29158ZM20.0296 8.71071C20.371 8.4469 20.4339 7.95625 20.17 7.61483C19.9063 7.27341 19.4156 7.2105 19.0742 7.47432L13.296 11.9391C12.8271 12.3015 12.1726 12.3015 11.7037 11.9391L5.92554 7.47432C5.58412 7.2105 5.09348 7.27341 4.82966 7.61483C4.56583 7.95625 4.62874 8.4469 4.97017 8.71071L10.7484 13.1756C11.78 13.9727 13.2197 13.9727 14.2514 13.1756L20.0296 8.71071Z" fill="#F06D7D"/>
</svg>
