<svg width="78" height="75" viewBox="0 0 78 75" fill="none" xmlns="http://www.w3.org/2000/svg">
<path d="M38.6659 74.1608C17.3461 74.1608 0 57.526 0 37.0804C0 16.6348 17.3461 0 38.6659 0C59.9858 0 77.3319 16.6348 77.3319 37.0804C77.3319 57.526 59.9858 74.1608 38.6659 74.1608ZM38.6659 0.695743C17.7418 0.695743 0.709026 17.0301 0.709026 37.0962C0.709026 57.1623 17.7253 73.4967 38.6659 73.4967C59.6065 73.4967 76.6228 57.1781 76.6228 37.0962C76.6228 17.0143 59.5901 0.695743 38.6659 0.695743Z" fill="#5E4B49"/>
<path d="M33.4896 56.7817H41.7504V36.9212H47.5214L48.1315 30.2799H41.7504V26.5007C41.7504 24.9353 42.0802 24.3186 43.6631 24.3186H48.1315V17.4243H42.4099C36.2597 17.4243 33.4896 20.0176 33.4896 24.9985V30.2957H29.186V37.0319H33.4896V56.7975V56.7817Z" fill="#5E4B49"/>
</svg>
