<svg width="78" height="75" viewBox="0 0 78 75" fill="none" xmlns="http://www.w3.org/2000/svg">
<path d="M38.6659 74.1608C17.3461 74.1608 0 57.526 0 37.0804C0 16.6348 17.3461 0 38.6659 0C59.9858 0 77.3319 16.6348 77.3319 37.0804C77.3319 57.526 59.9858 74.1608 38.6659 74.1608ZM38.6659 0.695743C17.7418 0.695743 0.709026 17.0301 0.709026 37.0962C0.709026 57.1623 17.7253 73.4967 38.6659 73.4967C59.6065 73.4967 76.6228 57.1781 76.6228 37.0962C76.6228 17.0143 59.5901 0.695743 38.6659 0.695743Z" fill="#5E4B49"/>
<path d="M33.4895 56.7816H41.7503V36.9211H47.5214L48.1314 30.2798H41.7503V26.5006C41.7503 24.9351 42.0801 24.3185 43.663 24.3185H48.1314V17.4242H42.4099C36.2596 17.4242 33.4895 20.0175 33.4895 24.9984V30.2956H29.186V37.0317H33.4895V56.7974V56.7816Z" fill="#5E4B49"/>
</svg>
