<svg width="204" height="205" viewBox="0 0 204 205" fill="none" xmlns="http://www.w3.org/2000/svg">
<ellipse cx="102" cy="102.5" rx="102" ry="102.5" fill="#F06D7D"/>
<path d="M166.934 96.5656C166.886 96.3714 166.815 96.1868 166.719 96.0166L166.718 96.0154L149.356 65.1411C149.353 65.1365 149.351 65.1319 149.348 65.1271L149.345 65.1207C149.338 65.1098 149.331 65.1005 149.325 65.09C149.32 65.0813 149.314 65.0726 149.309 65.0639C149.291 65.0335 149.272 65.0025 149.252 64.9724C149.245 64.9612 149.238 64.9498 149.23 64.9389C149.216 64.9187 149.2 64.9001 149.186 64.8809C149.165 64.8524 149.144 64.8238 149.121 64.7962C149.113 64.7872 149.106 64.7779 149.098 64.7689C149.079 64.7466 149.059 64.7258 149.04 64.7047C149.018 64.6811 148.997 64.6578 148.974 64.6352C148.967 64.6275 148.959 64.6197 148.95 64.6119C148.926 64.5887 148.901 64.5666 148.876 64.5446C148.856 64.5264 148.836 64.5078 148.815 64.4903C148.805 64.4829 148.796 64.4755 148.787 64.468C148.757 64.4447 148.727 64.4233 148.697 64.4017C148.678 64.3882 148.66 64.374 148.641 64.361C148.63 64.3536 148.619 64.3464 148.607 64.3389C148.576 64.3187 148.543 64.3002 148.51 64.2816C148.502 64.2766 148.494 64.2713 148.486 64.2667C148.475 64.2607 148.466 64.2536 148.455 64.248C148.454 64.2474 148.453 64.2471 148.452 64.2465C148.44 64.24 148.427 64.2338 148.415 64.2276C148.386 64.213 148.357 64.1999 148.328 64.1866C148.29 64.1689 148.252 64.1512 148.213 64.1354C148.187 64.1249 148.16 64.1162 148.133 64.1069C148.091 64.0917 148.049 64.0769 148.005 64.0641C147.977 64.0557 147.948 64.0495 147.919 64.0423C147.885 64.0337 147.851 64.0234 147.817 64.0166C147.809 64.0148 147.801 64.0142 147.792 64.0129C147.761 64.0067 147.73 64.003 147.698 63.9987C147.663 63.9931 147.628 63.9863 147.592 63.9828L147.589 63.9825C147.585 63.9825 147.581 63.9825 147.578 63.9819C147.54 63.9785 147.501 63.9775 147.463 63.9757C147.43 63.9744 147.398 63.9716 147.367 63.9716L147.36 63.9713H147.354C147.348 63.9713 147.342 63.9713 147.336 63.9713H104.766V54.531C108.119 53.5671 110.576 50.5234 110.576 46.9253C110.576 42.5553 106.953 39 102.499 39C98.0458 39 94.4225 42.5553 94.4225 46.9253C94.4225 50.5237 96.8798 53.5678 100.234 54.5316V63.9713H57.6598C57.6598 63.9713 57.6554 63.9713 57.6532 63.9713H57.6395H57.6364C57.5896 63.9713 57.5428 63.975 57.496 63.9778C57.4738 63.979 57.4514 63.9793 57.4293 63.9812C57.3743 63.9862 57.3196 63.9948 57.2652 64.0035C57.2481 64.0066 57.2314 64.0082 57.2147 64.0112C57.1624 64.0211 57.111 64.0342 57.059 64.0475C57.0394 64.0528 57.0192 64.0568 56.9996 64.0625C56.9487 64.0773 56.8991 64.0947 56.8498 64.1127C56.8308 64.1198 56.8112 64.1257 56.7925 64.1332C56.7464 64.1518 56.7018 64.1723 56.6569 64.1933C56.6348 64.2039 56.6121 64.2138 56.5902 64.2249C56.576 64.2321 56.5617 64.2389 56.5478 64.2463C56.5469 64.247 56.5447 64.2478 56.5447 64.2478C56.5342 64.2534 56.5248 64.2605 56.514 64.2664C56.5014 64.2736 56.4894 64.2814 56.477 64.2885C56.4502 64.3043 56.423 64.3195 56.397 64.3363C56.3844 64.3444 56.3714 64.3524 56.3591 64.3608C56.3373 64.3754 56.3173 64.3912 56.2965 64.4064C56.2696 64.4259 56.2424 64.4445 56.2165 64.4653C56.206 64.4736 56.1956 64.4817 56.1851 64.4901C56.1624 64.5091 56.1409 64.5289 56.1187 64.5488C56.096 64.5686 56.0732 64.5885 56.0514 64.6096C56.0425 64.6179 56.034 64.6263 56.0252 64.635C56.0015 64.6586 55.9794 64.6834 55.9569 64.7079C55.9389 64.7274 55.9202 64.7466 55.9031 64.7672C55.8949 64.7765 55.8866 64.7865 55.8788 64.796C55.8554 64.8245 55.8336 64.854 55.8121 64.8832C55.7982 64.9015 55.784 64.9189 55.771 64.9378C55.7628 64.949 55.7552 64.9608 55.7476 64.9722C55.7274 65.0024 55.7091 65.0333 55.6907 65.0638C55.6851 65.0731 55.6794 65.0821 55.6737 65.0914C55.668 65.1017 55.661 65.1104 55.6553 65.1206L55.6516 65.1271C55.649 65.1317 55.6465 65.1364 55.644 65.1411L38.282 96.015L38.2814 96.0165C38.1853 96.1868 38.1135 96.3714 38.0658 96.5656C38.0231 96.7381 38.0004 96.9124 38 97.0861V97.0889C38 107.715 46.8104 116.36 57.64 116.36C68.4692 116.36 77.2795 107.715 77.2795 97.0889L77.2792 97.0861C77.2792 96.9124 77.2564 96.7381 77.2138 96.5656C77.166 96.3713 77.0939 96.1868 76.9982 96.0165L76.9979 96.0153L61.4782 68.4185H100.234V135.02C100.234 135.259 100.274 135.49 100.345 135.706C91.8942 136.587 85.1777 142.593 83.8875 150.396H68.6635C67.412 150.396 66.3974 151.392 66.3974 152.62V163.776C66.3974 165.004 67.4119 166 68.6635 166H136.336C137.588 166 138.602 165.004 138.602 163.776V152.62C138.602 151.392 137.588 150.396 136.336 150.396H121.112C119.822 142.594 113.105 136.588 104.655 135.706C104.726 135.49 104.766 135.259 104.766 135.02V68.4185H143.522L128.003 96.015L128.002 96.0165C127.906 96.1868 127.834 96.3714 127.786 96.5656C127.744 96.7381 127.721 96.9124 127.721 97.0861L127.721 97.0889C127.721 107.715 136.531 116.36 147.36 116.36C158.19 116.36 167 107.715 167 97.0889V97.0861C167 96.9125 166.977 96.7382 166.934 96.5656ZM57.6395 70.7975L71.1743 94.8654H44.1047L57.6395 70.7975ZM57.6399 111.913C50.0793 111.913 43.7981 106.436 42.7017 99.3126H72.5777C71.4814 106.436 65.2002 111.913 57.6399 111.913ZM98.9547 46.9253C98.9547 45.0076 100.545 43.4473 102.499 43.4473C104.454 43.4473 106.044 45.0076 106.044 46.9253C106.044 48.8434 104.454 50.404 102.499 50.404C100.545 50.404 98.9547 48.8433 98.9547 46.9253ZM134.07 161.553H70.9297V154.844H85.9333H119.066H134.07V161.553ZM116.503 150.396H88.4969C89.857 144.432 95.5891 140.037 102.5 140.037C109.41 140.037 115.142 144.432 116.503 150.396ZM160.895 94.8654H133.826L147.36 70.7975L160.895 94.8654ZM147.36 111.913C139.8 111.913 133.519 106.436 132.422 99.3126H162.298C161.202 106.436 154.921 111.913 147.36 111.913Z" fill="white"/>
</svg>
