<svg width="78" height="75" viewBox="0 0 78 75" fill="none" xmlns="http://www.w3.org/2000/svg">
<path d="M38.6659 74.1608C17.3461 74.1608 0 57.526 0 37.0804C0 16.6348 17.3461 0 38.6659 0C59.9858 0 77.3318 16.6348 77.3318 37.0804C77.3318 57.526 59.9858 74.1608 38.6659 74.1608ZM38.6659 0.695755C17.7418 0.695755 0.709001 17.0301 0.709001 37.0962C0.709001 57.1623 17.7418 73.4966 38.6659 73.4966C59.5901 73.4966 76.6228 57.1623 76.6228 37.0962C76.6228 17.0301 59.5901 0.695755 38.6659 0.695755Z" fill="#5E4B49"/>
<path d="M47.729 16.1665H30.2707C22.6873 16.1665 18.1665 20.6873 18.1665 28.2707V45.7082C18.1665 53.3123 22.6873 57.8332 30.2707 57.8332H47.7082C55.2915 57.8332 59.8123 53.3123 59.8123 45.729V28.2707C59.8332 20.6873 55.3123 16.1665 47.729 16.1665ZM38.9998 45.0832C34.5415 45.0832 30.9165 41.4582 30.9165 36.9998C30.9165 32.5415 34.5415 28.9165 38.9998 28.9165C43.4582 28.9165 47.0832 32.5415 47.0832 36.9998C47.0832 41.4582 43.4582 45.0832 38.9998 45.0832ZM51.3332 26.3332C51.229 26.5832 51.0832 26.8123 50.8957 27.0207C50.6873 27.2082 50.4582 27.354 50.2082 27.4582C49.9582 27.5623 49.6873 27.6248 49.4165 27.6248C48.854 27.6248 48.3332 27.4165 47.9373 27.0207C47.7498 26.8123 47.604 26.5832 47.4998 26.3332C47.3957 26.0832 47.3332 25.8123 47.3332 25.5415C47.3332 25.2707 47.3957 24.9998 47.4998 24.7498C47.604 24.479 47.7498 24.2707 47.9373 24.0623C48.4165 23.5832 49.1457 23.354 49.8123 23.4998C49.9582 23.5207 50.0832 23.5623 50.2082 23.6248C50.3332 23.6665 50.4582 23.729 50.5832 23.8123C50.6873 23.8748 50.7915 23.979 50.8957 24.0623C51.0832 24.2707 51.229 24.479 51.3332 24.7498C51.4373 24.9998 51.4998 25.2707 51.4998 25.5415C51.4998 25.8123 51.4373 26.0832 51.3332 26.3332Z" fill="#5E4B49"/>
</svg>
