<svg width="78" height="75" viewBox="0 0 78 75" fill="none" xmlns="http://www.w3.org/2000/svg">
<path d="M38.6659 74.1608C17.3461 74.1608 0 57.526 0 37.0804C0 16.6348 17.3461 0 38.6659 0C59.9858 0 77.3318 16.6348 77.3318 37.0804C77.3318 57.526 59.9858 74.1608 38.6659 74.1608ZM38.6659 0.695755C17.7418 0.695755 0.709001 17.0301 0.709001 37.0962C0.709001 57.1623 17.7418 73.4966 38.6659 73.4966C59.5901 73.4966 76.6228 57.1623 76.6228 37.0962C76.6228 17.0301 59.5901 0.695755 38.6659 0.695755Z" fill="#5E4B49"/>
<path d="M47.7292 16.1666H30.2708C22.6875 16.1666 18.1667 20.6875 18.1667 28.2708V45.7083C18.1667 53.3125 22.6875 57.8333 30.2708 57.8333H47.7083C55.2917 57.8333 59.8125 53.3125 59.8125 45.7291V28.2708C59.8333 20.6875 55.3125 16.1666 47.7292 16.1666ZM39 45.0833C34.5417 45.0833 30.9167 41.4583 30.9167 37C30.9167 32.5416 34.5417 28.9166 39 28.9166C43.4583 28.9166 47.0833 32.5416 47.0833 37C47.0833 41.4583 43.4583 45.0833 39 45.0833ZM51.3333 26.3333C51.2292 26.5833 51.0833 26.8125 50.8958 27.0208C50.6875 27.2083 50.4583 27.3541 50.2083 27.4583C49.9583 27.5625 49.6875 27.625 49.4167 27.625C48.8542 27.625 48.3333 27.4166 47.9375 27.0208C47.75 26.8125 47.6042 26.5833 47.5 26.3333C47.3958 26.0833 47.3333 25.8125 47.3333 25.5416C47.3333 25.2708 47.3958 25 47.5 24.75C47.6042 24.4791 47.75 24.2708 47.9375 24.0625C48.4167 23.5833 49.1458 23.3541 49.8125 23.5C49.9583 23.5208 50.0833 23.5625 50.2083 23.625C50.3333 23.6666 50.4583 23.7291 50.5833 23.8125C50.6875 23.875 50.7917 23.9791 50.8958 24.0625C51.0833 24.2708 51.2292 24.4791 51.3333 24.75C51.4375 25 51.5 25.2708 51.5 25.5416C51.5 25.8125 51.4375 26.0833 51.3333 26.3333Z" fill="#5E4B49"/>
</svg>
