<svg width="78" height="75" viewBox="0 0 78 75" fill="none" xmlns="http://www.w3.org/2000/svg">
<path d="M38.6659 74.1608C17.3461 74.1608 0 57.526 0 37.0804C0 16.6348 17.3461 0 38.6659 0C59.9858 0 77.3318 16.6348 77.3318 37.0804C77.3318 57.526 59.9858 74.1608 38.6659 74.1608ZM38.6659 0.695755C17.7418 0.695755 0.709001 17.0301 0.709001 37.0962C0.709001 57.1623 17.7418 73.4966 38.6659 73.4966C59.5901 73.4966 76.6228 57.1623 76.6228 37.0962C76.6228 17.0301 59.5901 0.695755 38.6659 0.695755Z" fill="#5E4B49"/>
<path d="M29.3333 29.792H22.3091V51.5658H29.3333V29.792Z" fill="#5E4B49"/>
<path d="M25.7888 26.9445C28.0808 26.9445 29.944 25.1419 29.944 22.9281C29.944 20.7144 28.0808 18.9117 25.7888 18.9117C23.4969 18.9117 21.6337 20.7144 21.6337 22.9281C21.6337 25.1419 23.4969 26.9445 25.7888 26.9445Z" fill="#5E4B49"/>
<path d="M40.5791 40.1493C40.5791 37.0817 42.0465 35.2632 44.8661 35.2632C47.4548 35.2632 48.6914 37.0184 48.6914 40.1493V51.5818H55.6826V37.7933C55.6826 31.9584 52.2365 29.1438 47.4218 29.1438C42.6071 29.1438 40.5791 32.7491 40.5791 32.7491V29.8079H33.8351V51.5818H40.5791V40.1493Z" fill="#5E4B49"/>
</svg>
