<svg width="78" height="75" viewBox="0 0 78 75" fill="none" xmlns="http://www.w3.org/2000/svg">
<path d="M38.6659 74.1608C17.3461 74.1608 0 57.526 0 37.0804C0 16.6348 17.3461 0 38.6659 0C59.9858 0 77.3318 16.6348 77.3318 37.0804C77.3318 57.526 59.9858 74.1608 38.6659 74.1608ZM38.6659 0.695755C17.7418 0.695755 0.709001 17.0301 0.709001 37.0962C0.709001 57.1623 17.7418 73.4966 38.6659 73.4966C59.5901 73.4966 76.6228 57.1623 76.6228 37.0962C76.6228 17.0301 59.5901 0.695755 38.6659 0.695755Z" fill="#5E4B49"/>
<path d="M29.3333 29.792H22.3091V51.5658H29.3333V29.792Z" fill="#5E4B49"/>
<path d="M25.789 26.9444C28.0809 26.9444 29.9441 25.1418 29.9441 22.928C29.9441 20.7143 28.0809 18.9116 25.789 18.9116C23.497 18.9116 21.6338 20.7143 21.6338 22.928C21.6338 25.1418 23.497 26.9444 25.789 26.9444Z" fill="#5E4B49"/>
<path d="M40.5789 40.1496C40.5789 37.0819 42.0463 35.2635 44.8659 35.2635C47.4546 35.2635 48.6913 37.0187 48.6913 40.1496V51.582H55.6824V37.7935C55.6824 31.9587 52.2363 29.144 47.4217 29.144C42.607 29.144 40.5789 32.7493 40.5789 32.7493V29.8082H33.835V51.582H40.5789V40.1496Z" fill="#5E4B49"/>
</svg>
