<svg width="577" height="649" viewBox="0 0 577 649" fill="none" xmlns="http://www.w3.org/2000/svg">
<g clip-path="url(#clip0_110_154)">
<path d="M367.693 517.494C382.516 517.433 397.563 518.899 412.112 516.866C426.395 514.866 440.319 510.832 453.46 504.889C466.372 498.997 477.844 489.845 489.691 481.712C490.871 480.908 490.378 477.657 490.657 475.544L490.768 475.607C478.792 482.934 467.497 491.975 454.646 497.071C442.73 501.795 429.162 502.341 416.281 504.547C414.09 504.923 411.626 504.086 409.55 504.691C385.05 511.715 363.016 502.474 340.492 495.031C332.499 492.407 323.358 493.528 315.284 491.103C304.267 487.797 293.73 482.883 283.091 478.392C268.504 472.238 253.8 466.334 239.564 459.418C222.49 451.104 205.717 442.146 189.228 432.714C185.27 430.451 183.012 425.246 179.948 421.407C184.317 419.4 189.919 418.477 192.767 415.176C197.976 409.219 204.413 402.143 205.175 394.972C207.397 373.195 206.825 351.151 207.939 329.233C208.956 309.368 211.523 289.554 212 269.692C212.62 244.743 213.26 219.642 211.071 194.865C209.816 180.427 206.012 164.543 198.176 152.712C186.535 135.147 200.346 125.1 205.552 112.889C210.955 100.26 217.727 87.3253 227.06 77.538C235.026 69.1883 247.019 61.7003 258.076 60.258C266.576 59.1475 277.313 66.7801 285.419 72.7809C296.211 80.8033 305.509 90.9321 315.282 100.338C326.767 111.431 337.123 123.927 349.66 133.64C362.197 143.352 376.577 150.187 390.165 158.289L390.102 158.4C383.958 153.863 377.183 149.863 371.782 144.518C362.103 134.962 353.27 124.56 344.052 114.534C335.633 105.368 327.481 95.8888 318.636 87.1727C309.041 77.7703 299.942 66.745 288.383 60.7626C275.845 54.2816 259.318 47.4166 247.09 50.5954C234.241 53.935 223.987 68.4751 213.473 79.0661C207.081 85.5166 201.84 93.353 197.239 101.21C193.823 107.12 191.821 114.01 190.042 120.693C185.457 137.938 173.142 127.188 163.921 128.996C152.653 131.214 137.577 134.306 132.242 142.366C120.177 160.616 111.693 181.681 104.503 202.543C100.592 213.877 100.15 227.474 101.912 239.497C105.907 266.83 110.45 294.343 118.243 320.763C123.154 337.422 134.426 352.18 142.622 367.911C144.434 371.39 145.035 375.484 146.679 379.071C151.372 389.297 155.599 399.829 161.302 409.464C169.546 423.302 156.346 426.344 150.611 433.33C136.688 450.306 129.713 432.866 121.162 426.645C119.853 425.666 124.282 417.597 125.016 412.657C125.638 408.329 126.487 401.737 124.223 399.931C120.75 397.17 113.801 395.66 110.008 397.341C106.214 399.023 104.109 405.204 101.679 409.604C99.4965 413.584 98.4908 418.329 95.8534 421.904C93.8874 424.524 90.1462 425.869 87.1839 427.778C91.5064 429.441 96.5045 433.401 100.03 432.366C115.201 427.886 117.342 442.411 125.556 448.05C137.111 456.049 149.204 463.702 161.907 469.691C175.794 476.246 190.46 481.37 205.15 485.979C225.909 492.486 246.769 499.018 268.024 503.445C280.942 506.112 295.33 502.597 307.898 506.066C322.279 510.044 334.954 519.843 349.141 524.964C362.875 529.91 377.442 533.774 391.921 535.137C412.379 537.052 433.099 536.235 453.708 536.591C454.75 536.605 455.795 536.929 456.82 536.844C480.64 534.838 504.422 532.283 528.279 531.015C537.04 530.549 545.941 533.411 554.83 534.198C558.351 534.504 562.051 533.462 565.572 532.635C566.112 532.486 566.702 529.206 566.319 529.021C562.46 526.97 558.509 523.905 554.441 523.615C534.649 522.264 514.815 521.33 494.979 520.989C484.661 520.814 474.298 521.909 463.992 522.874C449.255 524.263 434.421 528.119 419.878 527.127C402.384 525.942 385.153 520.777 367.813 517.326C365.562 517.636 363.188 518.479 361.124 517.999C360.259 517.801 360.032 514.799 359.514 513.072L367.693 517.494ZM118.392 295.35C115.183 275.79 112.146 262.084 110.934 248.216C110.009 237.718 110.029 226.731 112.131 216.478C114.931 202.812 121.402 189.878 124.025 176.208C127.492 158.337 144.533 139.98 162.531 137.65C171.665 136.468 180.492 147.901 178.886 156.49C175.211 176.205 171.72 195.984 170.108 215.909C168.66 233.909 169.794 252.12 169.811 270.235C169.809 278.806 170.197 287.395 169.807 295.949C168.944 314.452 166.528 332.968 166.948 351.418C167.26 366.916 170.686 382.406 172.458 397.927C172.676 399.882 171.223 402.029 170.545 404.086C169.285 402.533 167.588 401.163 166.843 399.405C159.046 380.945 152.018 362.148 143.532 344.013C135.046 325.879 125.003 308.122 118.354 295.361L118.392 295.35ZM181.911 383.608C180.997 370.593 179.202 354.05 178.855 337.482C178.417 316.678 179.222 295.822 179.372 275.002C179.443 265.705 179.071 256.384 179.22 247.107C179.285 239.817 179.609 232.455 180.442 225.202C182.19 209.218 184.173 193.266 186.389 177.347C186.825 174.11 188.705 171.139 189.921 168.061C192.853 170.441 197.851 172.448 198.37 175.265C200.975 189.59 203.545 204.09 203.966 218.592C204.483 236.111 202.922 253.664 202.038 271.186C201.171 288.318 199.965 305.43 199.035 322.559C198.594 330.629 198.996 338.778 198.06 346.786C196.189 362.576 193.698 378.266 191.468 393.998C191.065 396.79 190.694 399.583 190.304 402.381C188.579 399.897 186.494 397.574 185.17 394.885C183.956 392.519 183.596 389.709 181.911 383.608ZM268.006 491.907C252.958 488.145 237.969 485.427 223.722 480.54C209.475 475.653 195.521 468.669 181.721 462.205C179.114 461.002 175.23 457.503 175.628 455.897C176.513 452.069 179.403 448.621 181.965 445.41C182.266 445.036 185.565 446.941 187.407 447.897C190.655 449.577 193.756 451.557 197.083 453.038C220.648 463.54 244.261 473.913 267.801 484.473C268.587 484.866 269.287 485.411 269.862 486.076C270.436 486.742 270.872 487.514 271.146 488.35C271.344 489.178 269.238 490.58 268.006 491.907ZM164.016 451.114L153.658 448.353C156.647 444.546 159.345 440.404 162.87 437.186C163.699 436.428 167.358 438.732 169.711 439.62L164.016 451.114ZM346.712 513.043C347.88 511.557 348.399 510.354 349.276 509.956C349.922 509.663 351.046 510.423 351.956 510.712C351.568 511.713 351.437 513.193 350.674 513.591C349.912 513.988 348.638 513.363 346.712 513.043ZM283.83 488.401C284.344 488.979 284.778 489.625 285.118 490.32C285.14 490.899 285.061 491.476 284.883 492.027C284.228 491.883 283.603 491.622 283.04 491.258C282.827 491.088 283.275 490.227 283.802 488.377L283.83 488.401Z" fill="#F6927C" fill-opacity="0.15"/>
<path d="M408.019 383.786C377.097 398.132 341.437 407.541 308.872 417.218C296.733 420.829 285.358 427.024 273.497 431.681C271.784 432.362 269.292 431.045 267.16 430.657C268.831 429.489 270.55 428.38 272.184 427.191C284.377 417.83 296.455 408.314 308.781 399.134C315.392 394.192 322.696 390.181 329.267 385.166C341.473 375.926 353.222 366.085 365.445 356.872C371.769 352.092 378.191 346.88 385.417 343.939C407.64 334.874 430.303 326.871 452.716 318.231C455.243 317.263 457.196 314.823 459.421 313.065C456.569 312.814 453.554 311.901 450.974 312.561C437.391 316.021 423.246 318.503 410.522 324.021C397.092 329.807 385.002 338.714 372.312 346.238C364.497 350.879 356.34 355.001 348.902 360.182C335.766 369.326 323.137 379.212 310.137 388.547C298.581 396.87 287.054 405.258 275.062 412.901C266.175 418.555 255.806 422.145 247.65 428.563C244.747 430.84 244.575 439.542 246.421 443.936C247.803 447.211 255.313 450.977 258.585 449.928C290.56 439.468 322.29 428.276 353.909 416.793C369.548 411.114 396.686 395.248 411.917 388.539C414.841 387.243 404.73 392.601 407.068 389.784L408.019 383.786Z" fill="#F6927C" fill-opacity="0.15"/>
<path d="M482.477 228.592C485.944 235.281 489.186 241.607 492.473 247.909C491.65 240.864 491.655 233.663 489.798 226.934C487.868 219.945 484.199 213.426 481.292 206.696C481.657 213.962 482.08 221.211 482.477 228.592Z" fill="#F6927C" fill-opacity="0.15"/>
<path d="M406.947 389.796C416.047 384.956 425.251 380.265 434.139 375.068C435.283 374.399 434.856 371.047 435.157 368.938L435.258 369.003C426.143 373.868 416.933 378.572 408.021 383.796C406.906 384.457 407.344 387.775 407.06 389.869L406.947 389.796Z" fill="#F6927C" fill-opacity="0.15"/>
<path d="M513.132 363.616L521.525 377.164C520.604 369.542 520.039 361.854 518.565 354.334C518.098 351.928 515.284 349.973 513.485 347.82L513.132 363.616Z" fill="#F6927C" fill-opacity="0.15"/>
<path d="M464.387 328.193L474.917 318.75L474.854 318.861L473.156 312.712L473.277 312.772C462.666 313.572 459.875 318.81 464.498 328.255L464.387 328.193Z" fill="#F6927C" fill-opacity="0.15"/>
<path d="M474.936 318.745L488.257 327.347L489.795 323.027L474.868 318.836L474.936 318.745Z" fill="#F6927C" fill-opacity="0.15"/>
<path d="M450 351.759L460.019 335.954L460.13 336.017L450.139 351.814C430.969 379.611 450 351.759 450 351.759Z" fill="#F6927C" fill-opacity="0.15"/>
<path d="M451.351 181.603L434.675 173.148L434.737 173.037L451.413 181.492L451.351 181.603Z" fill="#F6927C" fill-opacity="0.15"/>
<path d="M466.84 190.386L451.351 181.603L451.413 181.492L466.903 190.275L466.84 190.386Z" fill="#F6927C" fill-opacity="0.15"/>
<path d="M434.674 173.148L420.83 170.435L420.893 170.324L434.718 173.042L434.674 173.148Z" fill="#F6927C" fill-opacity="0.15"/>
<path d="M466.903 190.275L473.033 201.195C473.598 199.481 475.229 196.776 474.667 196.204C472.422 193.904 469.509 192.267 466.83 190.388L466.903 190.275Z" fill="#F6927C" fill-opacity="0.15"/>
<path d="M488.607 269.226C489.939 266.261 491.621 263.365 492.361 260.252C492.557 259.46 489.796 257.958 488.39 256.777L488.728 269.286L488.607 269.226Z" fill="#F6927C" fill-opacity="0.15"/>
<path d="M473.176 312.707L475.88 298.88L475.991 298.943L473.296 312.767L473.176 312.707Z" fill="#F6927C" fill-opacity="0.15"/>
<path d="M499.412 331.602L505.521 342.445C506.081 340.712 507.688 337.993 507.097 337.397C504.885 335.14 501.966 333.557 499.301 331.727L499.412 331.602Z" fill="#F6927C" fill-opacity="0.15"/>
<path d="M435.137 368.943L445.627 359.543L445.738 359.606L435.263 369.023L435.137 368.943Z" fill="#F6927C" fill-opacity="0.15"/>
<path d="M523.451 390.647L517.673 386.008C517.184 388.222 515.879 390.566 516.408 392.446C516.938 394.326 519.324 395.485 520.908 396.97L523.451 390.647Z" fill="#F6927C" fill-opacity="0.15"/>
<path d="M506.48 432.953C505.136 435.911 503.448 438.787 502.713 441.878C502.519 442.68 505.274 444.195 506.673 445.387C506.58 441.216 506.469 437.052 506.34 432.898L506.48 432.953Z" fill="#F6927C" fill-opacity="0.15"/>
<path d="M420.83 170.435C418.078 169.117 415.398 167.311 412.506 166.614C411.661 166.411 410.125 169.276 408.838 170.744L420.922 170.316L420.83 170.435Z" fill="#F6927C" fill-opacity="0.15"/>
<path d="M500.926 460.532C502.391 458.05 504.201 455.618 505.053 452.91C505.28 452.193 502.516 450.494 501.139 449.305C501.113 453.073 501.079 456.836 501.037 460.595L500.926 460.532Z" fill="#F6927C" fill-opacity="0.15"/>
<path d="M398.155 163.532L403.873 168.26L405.783 164.834L398.105 163.692L398.155 163.532Z" fill="#F6927C" fill-opacity="0.15"/>
<path d="M490.927 476.373L496.548 468.297L496.669 468.357L491.038 476.436L490.927 476.373Z" fill="#F6927C" fill-opacity="0.15"/>
<path d="M499.349 331.713L494.769 326.859L492.894 330.223L499.412 331.602L499.349 331.713Z" fill="#F6927C" fill-opacity="0.15"/>
<path d="M390.387 159.132L398.135 163.538L398.073 163.649L390.321 159.233L390.387 159.132Z" fill="#F6927C" fill-opacity="0.15"/>
<path d="M445.627 359.543C447.094 356.956 448.553 354.368 450.005 351.779L450.125 351.839L445.738 359.606L445.627 359.543Z" fill="#F6927C" fill-opacity="0.15"/>
<path d="M501.059 460.599L496.671 468.367L496.551 468.306L500.926 460.532L501.059 460.599Z" fill="#F6927C" fill-opacity="0.15"/>
<path d="M488.738 269.283L483.946 274.159L486.846 275.821L488.607 269.226L488.738 269.283Z" fill="#F6927C" fill-opacity="0.15"/>
<path d="M475.88 298.88L480.87 294.385L477.544 292.384L476.021 298.903L475.88 298.88Z" fill="#F6927C" fill-opacity="0.15"/>
<path d="M464.517 328.25L460.13 336.017L460.019 335.954C461.469 333.358 462.932 330.769 464.406 328.187L464.517 328.25Z" fill="#F6927C" fill-opacity="0.15"/>
<path d="M484.387 290.952C485.259 288.768 486.367 287.288 486.016 286.544C485.572 285.575 483.978 284.841 482.773 284.655C482.339 284.587 480.972 286.555 481.165 287.291C481.429 288.361 482.7 289.204 484.387 290.952Z" fill="#F6927C" fill-opacity="0.15"/>
<path d="M202.865 349.481L202.993 346.183" stroke="#F6927C" stroke-opacity="0.15" stroke-width="2" stroke-linecap="round" stroke-linejoin="round"/>
<path d="M205.581 335.661L204.032 326.291" stroke="#F6927C" stroke-opacity="0.15" stroke-width="2" stroke-linecap="round" stroke-linejoin="round"/>
<path d="M209.285 249.705L209.353 246.413" stroke="#F6927C" stroke-opacity="0.15" stroke-width="2" stroke-linecap="round" stroke-linejoin="round"/>
<path d="M211.33 233.452L209.724 224.098" stroke="#F6927C" stroke-opacity="0.15" stroke-width="2" stroke-linecap="round" stroke-linejoin="round"/>
<path d="M210.696 207.498L208.418 195.711" stroke="#F6927C" stroke-opacity="0.15" stroke-width="2" stroke-linecap="round" stroke-linejoin="round"/>
<path d="M201.571 172.117L198.82 165.687" stroke="#F6927C" stroke-opacity="0.15" stroke-width="2" stroke-linecap="round" stroke-linejoin="round"/>
<path d="M176.012 226.196L176.949 233.127" stroke="#F6927C" stroke-opacity="0.15" stroke-width="2" stroke-linecap="round" stroke-linejoin="round"/>
<path d="M174.977 246.107L175.915 253.038" stroke="#F6927C" stroke-opacity="0.15" stroke-width="2" stroke-linecap="round" stroke-linejoin="round"/>
<path d="M175.608 371.385C175.579 372.484 175.557 373.571 175.538 374.667" stroke="#F6927C" stroke-opacity="0.15" stroke-width="2" stroke-linecap="round" stroke-linejoin="round"/>
<path d="M234.579 63.3584L238.574 61.2787" stroke="#F6927C" stroke-opacity="0.15" stroke-width="2" stroke-linecap="round" stroke-linejoin="round"/>
<path d="M258.682 56.0595L263.188 55.7921" stroke="#F6927C" stroke-opacity="0.15" stroke-width="2" stroke-linecap="round" stroke-linejoin="round"/>
<path d="M332.631 109.802L334.375 112.582" stroke="#F6927C" stroke-opacity="0.15" stroke-width="2" stroke-linecap="round" stroke-linejoin="round"/>
<path d="M342.051 120.26L358.03 136.762" stroke="#F6927C" stroke-opacity="0.15" stroke-width="2" stroke-linecap="round" stroke-linejoin="round"/>
<path d="M104.822 238.039L106.093 246.176" stroke="#F6927C" stroke-opacity="0.15" stroke-width="2" stroke-linecap="round" stroke-linejoin="round"/>
<path d="M129.03 328.049L133.41 340.564" stroke="#F6927C" stroke-opacity="0.15" stroke-width="2" stroke-linecap="round" stroke-linejoin="round"/>
<path d="M411.533 533.951L420.883 532.346" stroke="#F6927C" stroke-opacity="0.15" stroke-width="2" stroke-linecap="round" stroke-linejoin="round"/>
<path d="M441.125 532.315L448.053 531.379" stroke="#F6927C" stroke-opacity="0.15" stroke-width="2" stroke-linecap="round" stroke-linejoin="round"/>
<path d="M470.717 530.68L480.066 529.075" stroke="#F6927C" stroke-opacity="0.15" stroke-width="2" stroke-linecap="round" stroke-linejoin="round"/>
<path d="M500.309 529.044L508.452 527.772" stroke="#F6927C" stroke-opacity="0.15" stroke-width="2" stroke-linecap="round" stroke-linejoin="round"/>
<path d="M525.055 528.778L533.189 527.509" stroke="#F6927C" stroke-opacity="0.15" stroke-width="2" stroke-linecap="round" stroke-linejoin="round"/>
<path d="M544.968 529.773L550.696 529.231" stroke="#F6927C" stroke-opacity="0.15" stroke-width="2" stroke-linecap="round" stroke-linejoin="round"/>
<path d="M559.95 532.172L564.281 531.308" stroke="#F6927C" stroke-opacity="0.15" stroke-width="2" stroke-linecap="round" stroke-linejoin="round"/>
<path d="M305.347 395.345L312.989 392.258" stroke="#F6927C" stroke-opacity="0.15" stroke-width="2" stroke-linecap="round" stroke-linejoin="round"/>
<path d="M333.537 374.492L342.395 371.069" stroke="#F6927C" stroke-opacity="0.15" stroke-width="2" stroke-linecap="round" stroke-linejoin="round"/>
<path d="M343.003 370.901C345.327 368.296 347.21 364.961 350.077 363.234C358.736 357.997 367.776 353.392 376.665 348.537" stroke="#F6927C" stroke-opacity="0.15" stroke-width="2" stroke-linecap="round" stroke-linejoin="round"/>
<path d="M377.273 348.37L401.818 335.712" stroke="#F6927C" stroke-opacity="0.15" stroke-width="2" stroke-linecap="round" stroke-linejoin="round"/>
<path d="M444.294 505.955L454.526 502.808" stroke="#F6927C" stroke-opacity="0.15" stroke-width="2" stroke-linecap="round" stroke-linejoin="round"/>
<path d="M406.249 327.954L457.752 313.412" stroke="#F6927C" stroke-opacity="0.15" stroke-width="2" stroke-linecap="round" stroke-linejoin="round"/>
<path d="M138.629 140.488L143.96 139.671" stroke="#F6927C" stroke-opacity="0.15" stroke-width="2" stroke-linecap="round" stroke-linejoin="round"/>
<path d="M481.846 209.078L491.902 245.501" stroke="#F6927C" stroke-opacity="0.15" stroke-width="2" stroke-linecap="round" stroke-linejoin="round"/>
<path d="M94.7165 427.339L86.7477 429.207" stroke="#F6927C" stroke-opacity="0.15" stroke-width="2" stroke-linecap="round" stroke-linejoin="round"/>
<path d="M514.33 350.392L523.704 384.343" stroke="#F6927C" stroke-opacity="0.15" stroke-width="2" stroke-linecap="round" stroke-linejoin="round"/>
<path d="M458.039 496.612L478.351 489.726" stroke="#F6927C" stroke-opacity="0.15" stroke-width="2" stroke-linecap="round" stroke-linejoin="round"/>
<path d="M409.196 385.944L423.105 381.782" stroke="#F6927C" stroke-opacity="0.15" stroke-width="2" stroke-linecap="round" stroke-linejoin="round"/>
<path d="M454.342 347.402L458.735 339.654" stroke="#F6927C" stroke-opacity="0.15" stroke-width="2" stroke-linecap="round" stroke-linejoin="round"/>
<path d="M425.73 374.854L433.016 372.843" stroke="#F6927C" stroke-opacity="0.15" stroke-width="2" stroke-linecap="round" stroke-linejoin="round"/>
<path d="M518.327 388.488L520.003 394.56" stroke="#F6927C" stroke-opacity="0.15" stroke-width="2" stroke-linecap="round" stroke-linejoin="round"/>
<path d="M503.241 333.849L504.918 339.921" stroke="#F6927C" stroke-opacity="0.15" stroke-width="2" stroke-linecap="round" stroke-linejoin="round"/>
<path d="M424.744 172.575L430.814 170.899" stroke="#F6927C" stroke-opacity="0.15" stroke-width="2" stroke-linecap="round" stroke-linejoin="round"/>
<path d="M489.186 259.321L490.862 265.393" stroke="#F6927C" stroke-opacity="0.15" stroke-width="2" stroke-linecap="round" stroke-linejoin="round"/>
<path d="M470.747 192.538L472.423 198.61" stroke="#F6927C" stroke-opacity="0.15" stroke-width="2" stroke-linecap="round" stroke-linejoin="round"/>
<path d="M501.85 451.841L503.183 456.668" stroke="#F6927C" stroke-opacity="0.15" stroke-width="2" stroke-linecap="round" stroke-linejoin="round"/>
<path d="M507.283 424.201L508.615 429.028" stroke="#F6927C" stroke-opacity="0.15" stroke-width="2" stroke-linecap="round" stroke-linejoin="round"/>
<path d="M445.67 316.82C457.801 314.247 470.424 315.353 481.924 319.997C493.424 324.642 503.278 332.613 510.224 342.891C517.17 353.169 520.893 365.287 520.916 377.692C520.939 390.098 517.261 402.227 510.353 412.528C510.353 412.528 510.64 457.237 488.23 478.188C465.819 499.139 487.643 478.018 488.806 480.273L482.736 481.949" stroke="#F6927C" stroke-opacity="0.15" stroke-width="7" stroke-linecap="round" stroke-linejoin="round"/>
<path d="M358.04 136.76C358.04 136.76 387.647 163.764 424.305 170.982C455.923 177.213 480.864 197.963 487.742 219.45C502.5 265.38 473.758 302.78 473.758 302.78C474.318 304.807 455.475 343.006 456.046 345.072" stroke="#F6927C" stroke-opacity="0.15" stroke-width="6" stroke-linecap="round" stroke-linejoin="round"/>
<path d="M474.318 304.807C474.318 304.807 457.151 367.582 405.732 391.451C389.865 396.269 373.489 402.556 357.641 407.368" stroke="#F6927C" stroke-opacity="0.15" stroke-width="2" stroke-miterlimit="10" stroke-linecap="round"/>
<path d="M460.44 341.355C460.44 341.355 449.618 372.945 415.486 386.234L460.44 341.355Z" fill="#F6927C" fill-opacity="0.15"/>
</g>
<defs>
<clipPath id="clip0_110_154">
<rect width="446.441" height="549.466" fill="white" transform="matrix(-0.963934 0.266143 0.266143 0.963934 430.339 0)"/>
</clipPath>
</defs>
</svg>
