<svg width="269" height="292" viewBox="0 0 269 292" fill="none" xmlns="http://www.w3.org/2000/svg">
<path d="M171.141 231.553C178.149 231.426 185.254 231.979 192.146 230.974C198.913 229.984 205.523 228.089 211.777 225.346C217.921 222.627 223.407 218.463 229.063 214.75C229.627 214.384 229.416 212.935 229.562 211.989L229.614 212.017C223.902 215.37 218.501 219.484 212.39 221.846C206.724 224.036 200.306 224.371 194.201 225.443C193.162 225.626 192.003 225.269 191.017 225.553C179.386 228.855 169.031 224.876 158.433 221.703C154.671 220.585 150.342 221.147 146.541 220.118C141.354 218.716 136.406 216.592 131.407 214.658C124.552 212.007 117.639 209.469 110.955 206.476C102.94 202.878 95.0701 198.989 87.3382 194.888C85.4821 193.904 84.45 191.594 83.0272 189.9C85.1063 188.974 87.7612 188.524 89.1301 187.031C91.6334 184.335 94.7249 181.131 95.1336 177.923C96.3321 168.182 96.2111 158.34 96.8864 148.544C97.5016 139.664 98.8496 130.797 99.2099 121.923C99.6721 110.776 100.145 99.5603 99.2782 88.5087C98.7827 82.0688 97.0918 74.9999 93.4673 69.7685C88.0824 62.0018 94.6802 57.4216 97.2245 51.9326C99.8644 46.2556 103.154 40.4331 107.633 35.9989C111.456 32.216 117.177 28.7909 122.414 28.0724C126.441 27.5192 131.465 30.856 135.257 33.4816C140.305 36.9921 144.633 41.4534 149.189 45.5884C154.544 50.466 159.356 55.9775 165.217 60.2311C171.079 64.4846 177.831 67.4404 184.201 70.968L184.17 71.0179C181.296 69.0327 178.12 67.292 175.603 64.9411C171.091 60.7382 166.986 56.1515 162.696 51.7354C158.777 47.6981 154.987 43.5194 150.865 39.686C146.392 35.5511 142.165 30.688 136.74 28.0938C130.856 25.2836 123.089 22.3286 117.286 23.8306C111.188 25.4087 106.242 31.9718 101.199 36.7728C98.1331 39.6968 95.6022 43.2321 93.3733 46.7725C91.7184 49.4347 90.725 52.5257 89.8386 55.5226C87.5538 63.2556 81.8045 58.537 77.4326 59.4067C72.0901 60.473 64.941 61.9556 62.364 65.5913C56.536 73.8238 52.3819 83.2889 48.8412 92.6552C46.9149 97.7439 46.6141 103.82 47.3655 109.177C49.0689 121.358 51.0305 133.617 54.5358 145.364C56.7448 152.771 61.9738 159.287 65.7423 166.258C66.5755 167.8 66.8317 169.624 67.585 171.215C69.7344 175.751 71.6613 180.426 74.2924 184.691C78.0965 190.816 71.8348 192.264 69.0759 195.423C62.3782 203.099 59.1986 195.356 55.198 192.635C54.5859 192.207 56.7345 188.573 57.1149 186.362C57.4385 184.425 57.8845 181.474 56.8263 180.683C55.2032 179.473 51.928 178.846 50.1229 179.622C48.3179 180.398 47.281 183.173 46.1022 185.155C45.0431 186.947 44.5355 189.073 43.2643 190.688C42.317 191.871 40.5391 192.497 39.1255 193.37C41.1579 194.084 43.4942 195.819 45.1679 195.332C52.3712 193.229 53.2851 199.703 57.1302 202.166C62.5391 205.661 68.2046 208.997 74.1699 211.587C80.6914 214.421 87.5907 216.611 94.5047 218.571C104.276 221.337 114.094 224.114 124.113 225.949C130.202 227.053 137.029 225.386 142.948 226.851C149.72 228.531 155.646 232.822 162.319 235.014C168.779 237.131 175.64 238.758 182.476 239.27C192.135 239.987 201.938 239.483 211.679 239.504C212.171 239.503 212.663 239.641 213.149 239.595C224.424 238.54 235.685 237.238 246.974 236.511C251.119 236.244 255.308 237.463 259.505 237.755C261.168 237.867 262.924 237.377 264.594 236.984C264.851 236.914 265.152 235.445 264.972 235.365C263.162 234.475 261.314 233.132 259.393 233.03C250.044 232.56 240.674 232.276 231.298 232.257C226.42 232.249 221.513 232.808 216.634 233.308C209.657 234.027 202.617 235.85 195.748 235.504C187.485 235.092 179.373 232.902 171.198 231.477C170.132 231.631 169.004 232.023 168.031 231.823C167.624 231.74 167.537 230.401 167.304 229.633L171.141 231.553ZM54.7787 134.013C53.3939 125.298 52.0511 119.197 51.5721 113.011C51.2059 108.329 51.2897 103.421 52.353 98.8279C53.7696 92.7051 56.9168 86.8846 58.2496 80.7617C60.01 72.7565 68.1914 64.4431 76.7163 63.2812C81.043 62.6919 85.1388 67.7388 84.3212 71.5857C82.4502 80.416 80.6657 89.2735 79.7683 98.1837C78.9616 106.233 79.3742 114.359 79.2593 122.449C79.2006 126.278 79.3257 130.111 79.0833 133.934C78.55 142.204 77.2818 150.49 77.3557 158.728C77.3981 165.648 78.9125 172.543 79.6452 179.463C79.7349 180.335 79.0334 181.304 78.6988 182.227C78.1137 181.542 77.3206 180.941 76.9803 180.161C73.4191 171.969 70.2238 163.621 66.3347 155.578C62.4455 147.536 57.8176 139.673 54.7604 134.018L54.7787 134.013ZM84.2118 173.005C83.8678 167.198 83.1314 159.821 83.0793 152.423C83.0136 143.135 83.5356 133.814 83.7478 124.514C83.8443 120.361 83.7317 116.201 83.865 112.056C83.9448 108.8 84.1482 105.509 84.591 102.264C85.5261 95.1137 86.5715 87.9759 87.7274 80.851C87.9552 79.4023 88.8642 78.0627 89.4602 76.6795C90.8301 77.7228 93.1799 78.5855 93.4058 79.8405C94.5403 86.2209 95.6573 92.68 95.7581 99.1541C95.8837 106.975 95.0266 114.826 94.4897 122.657C93.9636 130.315 93.2777 137.966 92.7217 145.623C92.4586 149.23 92.5931 152.867 92.0965 156.45C91.1046 163.515 89.8206 170.539 88.6596 177.581C88.4503 178.83 88.2559 180.08 88.0523 181.333C87.2538 180.235 86.2839 179.211 85.6761 178.019C85.1182 176.971 84.9668 175.718 84.2118 173.005ZM124.182 220.796C117.093 219.217 110.025 218.103 103.322 216.016C96.6195 213.93 90.0696 210.904 83.5887 208.11C82.3646 207.59 80.5519 206.054 80.7508 205.334C81.1952 203.618 82.5852 202.059 83.8179 200.607C83.9631 200.438 85.5098 201.267 86.3744 201.681C87.8982 202.41 89.3511 203.273 90.9141 203.913C101.984 208.444 113.078 212.918 124.136 217.477C124.505 217.647 124.833 217.886 125.099 218.179C125.366 218.472 125.568 218.814 125.691 219.185C125.779 219.554 124.774 220.195 124.182 220.796ZM75.2931 203.275L70.4147 202.112C71.8535 200.392 73.1575 198.523 74.846 197.063C75.2431 196.718 76.9571 197.723 78.0637 198.103L75.2931 203.275ZM161.251 229.706C161.814 229.035 162.067 228.494 162.484 228.31C162.792 228.175 163.318 228.507 163.747 228.63C163.556 229.079 163.484 229.741 163.121 229.924C162.758 230.107 162.16 229.836 161.251 229.706ZM131.688 219.123C131.927 219.378 132.128 219.663 132.284 219.972C132.291 220.23 132.249 220.488 132.161 220.735C131.852 220.675 131.559 220.563 131.295 220.404C131.196 220.33 131.413 219.942 131.675 219.113L131.688 219.123Z" fill="#E3AAB6"/>
<path d="M191.114 171.563C176.397 178.178 159.473 182.62 144.011 187.162C138.247 188.856 132.827 191.7 127.188 193.859C126.373 194.175 125.204 193.603 124.198 193.444C124.996 192.912 125.817 192.405 126.598 191.863C132.426 187.6 138.201 183.268 144.091 179.085C147.25 176.834 150.73 174.993 153.871 172.709C159.704 168.5 165.326 164.026 171.168 159.828C174.19 157.651 177.262 155.28 180.698 153.918C191.266 149.719 202.035 145.993 212.691 141.983C213.892 141.533 214.832 140.43 215.896 139.63C214.549 139.537 213.13 139.15 211.906 139.462C205.46 141.099 198.756 142.302 192.702 144.853C186.314 147.527 180.537 151.587 174.487 155.033C170.76 157.158 166.876 159.054 163.324 161.418C157.051 165.59 151.013 170.091 144.803 174.348C139.283 178.143 133.777 181.967 128.055 185.461C123.815 188.046 118.888 189.719 114.988 192.641C113.601 193.677 113.46 197.565 114.303 199.515C114.935 200.969 118.459 202.6 120.014 202.109C135.202 197.223 150.28 192.01 165.307 186.669C172.74 184.027 185.678 176.758 192.924 173.659C194.316 173.061 189.499 175.522 190.624 174.248L191.114 171.563Z" fill="#E3AAB6"/>
<path d="M227.369 101.747C228.963 104.711 230.453 107.514 231.964 110.307C231.623 107.166 231.674 103.95 230.841 100.957C229.976 97.8484 228.286 94.9613 226.957 91.9752C227.08 95.2176 227.231 98.4526 227.369 101.747Z" fill="#E3AAB6"/>
<path d="M190.565 174.254C194.901 172.032 199.284 169.874 203.522 167.493C204.067 167.187 203.888 165.692 204.044 164.748L204.092 164.777C199.75 167.011 195.363 169.174 191.114 171.567C190.582 171.87 190.767 173.349 190.619 174.286L190.565 174.254Z" fill="#E3AAB6"/>
<path d="M240.947 161.847L244.823 167.841C244.44 164.444 244.225 161.014 243.579 157.665C243.374 156.593 242.057 155.739 241.221 154.79L240.947 161.847Z" fill="#E3AAB6"/>
<path d="M218.141 146.353L223.183 142.065L223.153 142.115L222.392 139.38L222.448 139.406C217.426 139.835 216.071 142.193 218.193 146.381L218.141 146.353Z" fill="#E3AAB6"/>
<path d="M223.192 142.063L229.432 145.815L230.189 143.875L223.16 142.104L223.192 142.063Z" fill="#E3AAB6"/>
<path d="M211.179 156.976L216.023 149.85L216.075 149.877L211.245 157C201.993 169.543 211.179 156.976 211.179 156.976Z" fill="#E3AAB6"/>
<path d="M212.971 80.969L205.144 77.3047L205.175 77.2548L213.002 80.919L212.971 80.969Z" fill="#E3AAB6"/>
<path d="M220.235 84.7875L212.971 80.9689L213.002 80.919L220.265 84.7376L220.235 84.7875Z" fill="#E3AAB6"/>
<path d="M205.144 77.3047L198.617 76.1864L198.648 76.1364L205.166 77.2573L205.144 77.3047Z" fill="#E3AAB6"/>
<path d="M220.266 84.7376L223.09 89.5736C223.369 88.8041 224.159 87.585 223.896 87.3334C222.851 86.3214 221.484 85.6098 220.231 84.7888L220.266 84.7376Z" fill="#E3AAB6"/>
<path d="M229.992 119.854C230.641 118.521 231.457 117.216 231.827 115.821C231.926 115.466 230.63 114.813 229.973 114.295L230.049 119.88L229.992 119.854Z" fill="#E3AAB6"/>
<path d="M222.401 139.378L223.773 133.184L223.825 133.211L222.458 139.404L222.401 139.378Z" fill="#E3AAB6"/>
<path d="M234.677 147.641L237.492 152.443C237.769 151.664 238.547 150.439 238.272 150.177C237.241 149.184 235.872 148.497 234.624 147.697L234.677 147.641Z" fill="#E3AAB6"/>
<path d="M204.035 164.751L209.058 160.482L209.11 160.509L204.094 164.786L204.035 164.751Z" fill="#E3AAB6"/>
<path d="M245.643 173.85L242.943 171.818C242.696 172.809 242.063 173.865 242.301 174.701C242.538 175.537 243.659 176.039 244.397 176.692L245.643 173.85Z" fill="#E3AAB6"/>
<path d="M237.332 192.86C236.677 194.19 235.859 195.486 235.491 196.872C235.394 197.231 236.686 197.889 237.339 198.412C237.324 196.55 237.299 194.691 237.266 192.836L237.332 192.86Z" fill="#E3AAB6"/>
<path d="M198.617 76.1864C197.324 75.6162 196.07 74.8278 194.707 74.5358C194.308 74.4508 193.563 75.7409 192.945 76.4049L198.661 76.1327L198.617 76.1864Z" fill="#E3AAB6"/>
<path d="M234.519 205.215C235.228 204.097 236.101 202.998 236.522 201.783C236.634 201.461 235.339 200.721 234.696 200.199C234.658 201.882 234.617 203.564 234.571 205.243L234.519 205.215Z" fill="#E3AAB6"/>
<path d="M187.943 73.256L190.615 75.3289L191.541 73.7859L187.919 73.3274L187.943 73.256Z" fill="#E3AAB6"/>
<path d="M229.684 212.358L232.397 208.713L232.453 208.739L229.736 212.385L229.684 212.358Z" fill="#E3AAB6"/>
<path d="M234.647 147.691L232.514 145.553L231.605 147.069L234.677 147.641L234.647 147.691Z" fill="#E3AAB6"/>
<path d="M184.3 71.3428L187.933 73.2585L187.903 73.3084L184.268 71.3884L184.3 71.3428Z" fill="#E3AAB6"/>
<path d="M209.058 160.482C209.769 159.317 210.477 158.151 211.181 156.985L211.237 157.011L209.11 160.509L209.058 160.482Z" fill="#E3AAB6"/>
<path d="M234.581 205.244L232.454 208.743L232.398 208.717L234.519 205.215L234.581 205.244Z" fill="#E3AAB6"/>
<path d="M230.053 119.879L227.754 122.089L229.114 122.811L229.992 119.854L230.053 119.879Z" fill="#E3AAB6"/>
<path d="M223.773 133.184L226.163 131.143L224.604 130.272L223.84 133.193L223.773 133.184Z" fill="#E3AAB6"/>
<path d="M218.202 146.378L216.075 149.877L216.023 149.85C216.726 148.68 217.435 147.514 218.15 146.351L218.202 146.378Z" fill="#E3AAB6"/>
<path d="M227.85 129.586C228.277 128.605 228.811 127.936 228.65 127.606C228.446 127.177 227.698 126.86 227.129 126.784C226.925 126.757 226.265 127.645 226.351 127.972C226.469 128.449 227.064 128.817 227.85 129.586Z" fill="#E3AAB6"/>
<path d="M94.3497 157.621L94.4326 156.147" stroke="#E3AAB6" stroke-width="2" stroke-linecap="round" stroke-linejoin="round"/>
<path d="M95.7282 151.43L95.0596 147.256" stroke="#E3AAB6" stroke-width="2" stroke-linecap="round" stroke-linejoin="round"/>
<path d="M98.062 113.014L98.1162 111.544" stroke="#E3AAB6" stroke-width="2" stroke-linecap="round" stroke-linejoin="round"/>
<path d="M99.1394 105.742L98.4434 101.575" stroke="#E3AAB6" stroke-width="2" stroke-linecap="round" stroke-linejoin="round"/>
<path d="M99.0157 94.1537L98.0186 88.9048" stroke="#E3AAB6" stroke-width="2" stroke-linecap="round" stroke-linejoin="round"/>
<path d="M94.941 78.4126L93.6837 75.5593" stroke="#E3AAB6" stroke-width="2" stroke-linecap="round" stroke-linejoin="round"/>
<path d="M82.4902 102.738L82.8864 105.828" stroke="#E3AAB6" stroke-width="2" stroke-linecap="round" stroke-linejoin="round"/>
<path d="M81.8662 111.638L82.2624 114.728" stroke="#E3AAB6" stroke-width="2" stroke-linecap="round" stroke-linejoin="round"/>
<path d="M81.3145 167.588C81.2933 168.079 81.2756 168.564 81.259 169.054" stroke="#E3AAB6" stroke-width="2" stroke-linecap="round" stroke-linejoin="round"/>
<path d="M157.328 49.6987L158.134 50.929" stroke="#E3AAB6" stroke-width="2" stroke-linecap="round" stroke-linejoin="round"/>
<path d="M161.711 54.3066L169.154 61.5694" stroke="#E3AAB6" stroke-width="2" stroke-linecap="round" stroke-linejoin="round"/>
<path d="M48.751 108.507L49.2965 112.133" stroke="#E3AAB6" stroke-width="2" stroke-linecap="round" stroke-linejoin="round"/>
<path d="M59.5865 148.546L61.5724 154.106" stroke="#E3AAB6" stroke-width="2" stroke-linecap="round" stroke-linejoin="round"/>
<path d="M191.756 238.608L196.187 237.828" stroke="#E3AAB6" stroke-width="2" stroke-linecap="round" stroke-linejoin="round"/>
<path d="M205.758 237.678L209.04 237.214" stroke="#E3AAB6" stroke-width="2" stroke-linecap="round" stroke-linejoin="round"/>
<path d="M219.761 236.749L224.192 235.969" stroke="#E3AAB6" stroke-width="2" stroke-linecap="round" stroke-linejoin="round"/>
<path d="M233.762 235.819L237.621 235.197" stroke="#E3AAB6" stroke-width="2" stroke-linecap="round" stroke-linejoin="round"/>
<path d="M245.464 235.534L249.318 234.912" stroke="#E3AAB6" stroke-width="2" stroke-linecap="round" stroke-linejoin="round"/>
<path d="M254.872 235.845L257.584 235.564" stroke="#E3AAB6" stroke-width="2" stroke-linecap="round" stroke-linejoin="round"/>
<path d="M261.94 236.815L263.993 236.4" stroke="#E3AAB6" stroke-width="2" stroke-linecap="round" stroke-linejoin="round"/>
<path d="M142.492 177.416L146.126 175.986" stroke="#E3AAB6" stroke-width="2" stroke-linecap="round" stroke-linejoin="round"/>
<path d="M155.961 167.913L160.173 166.324" stroke="#E3AAB6" stroke-width="2" stroke-linecap="round" stroke-linejoin="round"/>
<path d="M160.462 166.245C161.578 165.066 162.491 163.564 163.858 162.773C167.987 160.376 172.293 158.258 176.528 156.03" stroke="#E3AAB6" stroke-width="2" stroke-linecap="round" stroke-linejoin="round"/>
<path d="M176.816 155.951L188.507 150.133" stroke="#E3AAB6" stroke-width="2" stroke-linecap="round" stroke-linejoin="round"/>
<path d="M207.436 225.884L212.295 224.409" stroke="#E3AAB6" stroke-width="2" stroke-linecap="round" stroke-linejoin="round"/>
<path d="M190.655 146.638L215.104 139.797" stroke="#E3AAB6" stroke-width="2" stroke-linecap="round" stroke-linejoin="round"/>
<path d="M65.3972 64.7096L67.9229 64.3088" stroke="#E3AAB6" stroke-width="2" stroke-linecap="round" stroke-linejoin="round"/>
<path d="M227.203 93.0354L231.711 109.235" stroke="#E3AAB6" stroke-width="2" stroke-linecap="round" stroke-linejoin="round"/>
<path d="M42.6896 193.123L38.9093 194.011" stroke="#E3AAB6" stroke-width="2" stroke-linecap="round" stroke-linejoin="round"/>
<path d="M241.604 155.933L245.805 171.033" stroke="#E3AAB6" stroke-width="2" stroke-linecap="round" stroke-linejoin="round"/>
<path d="M213.997 221.618L223.647 218.406" stroke="#E3AAB6" stroke-width="2" stroke-linecap="round" stroke-linejoin="round"/>
<path d="M191.655 172.519L198.26 170.566" stroke="#E3AAB6" stroke-width="2" stroke-linecap="round" stroke-linejoin="round"/>
<path d="M213.261 155.001L215.391 151.511" stroke="#E3AAB6" stroke-width="2" stroke-linecap="round" stroke-linejoin="round"/>
<path d="M199.548 167.454L203.006 166.507" stroke="#E3AAB6" stroke-width="2" stroke-linecap="round" stroke-linejoin="round"/>
<path d="M243.234 172.921L243.986 175.621" stroke="#E3AAB6" stroke-width="2" stroke-linecap="round" stroke-linejoin="round"/>
<path d="M236.473 148.618L237.224 151.319" stroke="#E3AAB6" stroke-width="2" stroke-linecap="round" stroke-linejoin="round"/>
<path d="M200.453 77.1159L203.334 76.3266" stroke="#E3AAB6" stroke-width="2" stroke-linecap="round" stroke-linejoin="round"/>
<path d="M230.332 115.426L231.084 118.127" stroke="#E3AAB6" stroke-width="2" stroke-linecap="round" stroke-linejoin="round"/>
<path d="M222.067 85.7225L222.819 88.4233" stroke="#E3AAB6" stroke-width="2" stroke-linecap="round" stroke-linejoin="round"/>
<path d="M235.015 201.327L235.612 203.474" stroke="#E3AAB6" stroke-width="2" stroke-linecap="round" stroke-linejoin="round"/>
<path d="M237.771 188.946L238.368 191.093" stroke="#E3AAB6" stroke-width="2" stroke-linecap="round" stroke-linejoin="round"/>
<path d="M209.369 141.4C215.121 140.169 221.082 140.578 226.488 142.575C231.893 144.572 236.498 148.066 239.713 152.61C242.927 157.154 244.605 162.541 244.532 168.082C244.459 173.622 242.638 179.064 239.302 183.711C239.302 183.711 239.134 203.678 228.397 213.186C217.659 222.695 228.12 213.114 228.655 214.114L225.774 214.903" stroke="#E3AAB6" stroke-width="7" stroke-linecap="round" stroke-linejoin="round"/>
<path d="M169.158 61.5681C169.158 61.5681 182.973 73.4299 200.255 76.4074C215.162 78.9776 226.814 88.0773 229.92 97.6282C236.586 118.043 222.743 134.94 222.743 134.94C222.994 135.842 213.827 153.03 214.082 153.949" stroke="#E3AAB6" stroke-width="6" stroke-linecap="round" stroke-linejoin="round"/>
<path d="M222.995 135.842C222.995 135.842 214.453 163.995 189.981 175.002C182.446 177.26 174.661 180.178 167.136 182.434" stroke="#E3AAB6" stroke-width="2" stroke-miterlimit="10" stroke-linecap="round"/>
<path d="M216.186 152.259C216.186 152.259 210.855 166.441 194.627 172.606Z" fill="#E3AAB6"/>
</svg>
