<svg width="330" height="371" viewBox="0 0 330 371" fill="none" xmlns="http://www.w3.org/2000/svg">
<g opacity="0.37">
<g clip-path="url(#clip0_110_7)">
<path d="M119.358 295.701C110.888 295.666 102.29 296.504 93.9763 295.342C85.8147 294.199 77.8587 291.894 70.3497 288.498C62.9716 285.131 56.4164 279.902 49.6471 275.255C48.9728 274.795 49.2543 272.938 49.0951 271.73L49.0318 271.766C55.8749 275.953 62.3289 281.119 69.6723 284.031C76.4811 286.73 84.2338 287.042 91.5941 288.303C92.8461 288.518 94.2539 288.04 95.4403 288.385C109.44 292.399 122.03 287.118 134.9 282.865C139.468 281.366 144.691 282.007 149.305 280.621C155.6 278.732 161.621 275.924 167.7 273.358C176.035 269.841 184.437 266.468 192.572 262.516C202.328 257.765 211.912 252.646 221.334 247.257C223.596 245.964 224.886 242.99 226.637 240.796C224.141 239.649 220.94 239.122 219.312 237.236C216.336 233.832 212.657 229.788 212.222 225.691C210.952 213.247 211.279 200.651 210.642 188.127C210.062 176.776 208.595 165.454 208.322 154.105C207.968 139.848 207.602 125.505 208.853 111.347C209.57 103.098 211.744 94.0212 216.221 87.2609C222.873 77.2243 214.982 71.4834 212.007 64.5058C208.92 57.2894 205.05 49.8985 199.717 44.306C195.165 39.5348 188.312 35.2561 181.994 34.432C177.137 33.7974 171.002 38.1588 166.37 41.5877C160.203 46.1718 154.89 51.9595 149.306 57.3338C142.743 63.6728 136.826 70.8132 129.662 76.363C122.498 81.9127 114.282 85.8181 106.517 90.448L106.553 90.5114C110.064 87.9187 113.935 85.6333 117.021 82.5792C122.552 77.1189 127.599 71.1748 132.866 65.4457C137.677 60.208 142.335 54.7918 147.389 49.8113C152.872 44.4387 158.071 38.1387 164.676 34.7203C171.84 31.0171 181.285 27.0943 188.272 28.9107C195.613 30.819 201.473 39.1273 207.48 45.1791C211.133 48.865 214.128 53.3428 216.757 57.8326C218.709 61.2091 219.853 65.1463 220.869 68.9652C223.489 78.8191 230.526 72.6763 235.795 73.7095C242.233 74.9767 250.848 76.7438 253.897 81.3493C260.791 91.7777 265.639 103.814 269.747 115.735C271.982 122.212 272.234 129.981 271.228 136.851C268.945 152.469 266.349 168.191 261.896 183.287C259.09 192.806 252.649 201.239 247.966 210.228C246.93 212.216 246.587 214.555 245.647 216.605C242.966 222.448 240.551 228.466 237.292 233.972C232.581 241.879 240.124 243.617 243.401 247.609C251.356 257.309 255.342 247.344 260.228 243.789C260.976 243.23 258.445 238.619 258.026 235.796C257.67 233.323 257.185 229.556 258.479 228.524C260.463 226.947 264.434 226.084 266.602 227.045C268.769 228.005 269.972 231.537 271.361 234.052C272.608 236.326 273.183 239.037 274.69 241.08C275.813 242.577 277.951 243.346 279.643 244.436C277.173 245.387 274.318 247.65 272.303 247.058C263.634 244.498 262.411 252.798 257.717 256.02C251.115 260.591 244.205 264.964 236.946 268.386C229.011 272.131 220.63 275.06 212.237 277.693C200.374 281.411 188.455 285.143 176.31 287.673C168.928 289.197 160.707 287.188 153.525 289.171C145.308 291.444 138.065 297.043 129.958 299.97C122.111 302.796 113.787 305.003 105.514 305.782C93.824 306.877 81.984 306.41 70.2081 306.613C69.6125 306.621 69.0154 306.807 68.4296 306.758C54.8188 305.612 41.2296 304.151 27.5974 303.427C22.5913 303.161 17.5054 304.796 12.4263 305.246C10.4139 305.421 8.29969 304.825 6.28792 304.353C5.97915 304.267 5.64206 302.393 5.86114 302.288C8.06588 301.115 10.3237 299.364 12.6481 299.198C23.9578 298.427 35.2908 297.893 46.6252 297.698C52.5215 297.598 58.443 298.224 64.3316 298.775C72.7525 299.569 81.229 301.772 89.5389 301.205C99.5348 300.528 109.381 297.577 119.29 295.605C120.576 295.782 121.932 296.264 123.112 295.99C123.606 295.877 123.735 294.161 124.031 293.174L119.358 295.701ZM261.811 168.766C263.644 157.589 265.38 149.757 266.072 141.833C266.601 135.834 266.59 129.556 265.389 123.698C263.788 115.889 260.091 108.498 258.592 100.687C256.611 90.4752 246.873 79.986 236.59 78.6545C231.37 77.9792 226.326 84.512 227.244 89.4197C229.344 100.685 231.338 111.987 232.26 123.373C233.087 133.658 232.439 144.064 232.43 154.415C232.43 159.313 232.209 164.22 232.432 169.108C232.925 179.681 234.306 190.261 234.065 200.804C233.887 209.659 231.93 218.511 230.917 227.379C230.792 228.497 231.623 229.723 232.01 230.899C232.73 230.011 233.7 229.228 234.126 228.224C238.581 217.675 242.597 206.935 247.446 196.573C252.294 186.21 258.033 176.064 261.833 168.772L261.811 168.766ZM225.515 219.197C226.038 211.76 227.063 202.308 227.262 192.84C227.512 180.953 227.052 169.036 226.966 157.139C226.926 151.826 227.138 146.5 227.053 141.199C227.016 137.034 226.831 132.827 226.355 128.682C225.356 119.549 224.223 110.434 222.957 101.338C222.708 99.4883 221.634 97.7907 220.938 96.0315C219.263 97.3915 216.407 98.5382 216.111 100.148C214.622 108.334 213.153 116.619 212.913 124.906C212.617 134.916 213.509 144.946 214.015 154.958C214.51 164.748 215.199 174.526 215.731 184.313C215.983 188.924 215.753 193.581 216.288 198.157C217.357 207.179 218.78 216.145 220.055 225.134C220.285 226.729 220.497 228.325 220.72 229.925C221.705 228.505 222.897 227.177 223.653 225.641C224.347 224.289 224.553 222.683 225.515 219.197ZM176.32 281.081C184.919 278.931 193.483 277.377 201.624 274.585C209.765 271.793 217.739 267.802 225.624 264.108C227.113 263.421 229.333 261.422 229.106 260.504C228.6 258.316 226.948 256.346 225.485 254.512C225.312 254.298 223.428 255.386 222.375 255.933C220.519 256.893 218.747 258.024 216.846 258.87C203.381 264.871 189.888 270.798 176.437 276.832C175.988 277.057 175.588 277.368 175.26 277.749C174.932 278.129 174.682 278.57 174.526 279.048C174.413 279.521 175.616 280.322 176.32 281.081ZM235.741 257.771L241.66 256.193C239.952 254.018 238.41 251.651 236.395 249.812C235.922 249.379 233.831 250.696 232.487 251.203L235.741 257.771ZM131.347 293.158C130.679 292.309 130.382 291.621 129.881 291.394C129.512 291.226 128.87 291.661 128.35 291.826C128.572 292.398 128.647 293.243 129.082 293.471C129.518 293.698 130.246 293.341 131.347 293.158ZM167.278 279.077C166.984 279.407 166.736 279.776 166.542 280.174C166.529 280.504 166.575 280.834 166.676 281.149C167.051 281.066 167.407 280.918 167.729 280.709C167.851 280.612 167.595 280.12 167.294 279.063L167.278 279.077Z" fill="#F4C465" fill-opacity="0.5"/>
<path d="M96.3154 219.299C113.985 227.496 134.361 232.873 152.968 238.402C159.905 240.466 166.405 244.006 173.182 246.667C174.161 247.055 175.585 246.303 176.804 246.081C175.849 245.414 174.866 244.781 173.932 244.101C166.965 238.752 160.064 233.314 153.021 228.069C149.243 225.245 145.069 222.953 141.315 220.088C134.34 214.808 127.627 209.185 120.642 203.92C117.029 201.189 113.359 198.21 109.23 196.53C96.5315 191.35 83.5821 186.777 70.7748 181.84C69.3312 181.287 68.215 179.893 66.9434 178.888C68.5734 178.745 70.2959 178.223 71.7702 178.6C79.532 180.577 87.6142 181.995 94.8851 185.149C102.559 188.455 109.467 193.544 116.718 197.844C121.184 200.496 125.845 202.851 130.095 205.811C137.601 211.036 144.818 216.686 152.246 222.019C158.849 226.775 165.436 231.568 172.288 235.936C177.366 239.166 183.291 241.218 187.952 244.885C189.61 246.186 189.709 251.158 188.654 253.669C187.864 255.541 183.573 257.692 181.703 257.093C163.433 251.116 145.302 244.721 127.234 238.16C118.298 234.914 102.791 225.848 94.088 222.015C92.4173 221.274 98.1944 224.336 96.8586 222.726L96.3154 219.299Z" fill="#F4C465" fill-opacity="0.5"/>
<path d="M53.7691 130.62C51.788 134.442 49.9356 138.056 48.0571 141.658C48.5277 137.632 48.5245 133.517 49.586 129.672C50.6887 125.679 52.7853 121.954 54.4464 118.108C54.2378 122.26 53.996 126.402 53.7691 130.62Z" fill="#F4C465" fill-opacity="0.5"/>
<path d="M96.9278 222.733C91.7277 219.968 86.4686 217.287 81.3901 214.317C80.7361 213.935 80.9801 212.02 80.8084 210.814L80.7506 210.852C85.9587 213.632 91.2218 216.32 96.3138 219.305C96.9513 219.682 96.7008 221.578 96.863 222.775L96.9278 222.733Z" fill="#F4C465" fill-opacity="0.5"/>
<path d="M36.2528 207.774L31.457 215.515C31.9829 211.16 32.3057 206.767 33.1479 202.47C33.4148 201.095 35.0228 199.978 36.0508 198.748L36.2528 207.774Z" fill="#F4C465" fill-opacity="0.5"/>
<path d="M64.1058 187.532L58.089 182.137L58.1249 182.2L59.095 178.686L59.0262 178.721C65.0892 179.178 66.6839 182.171 64.0425 187.568L64.1058 187.532Z" fill="#F4C465" fill-opacity="0.5"/>
<path d="M58.0779 182.134L50.4663 187.049L49.5873 184.58L58.1169 182.186L58.0779 182.134Z" fill="#F4C465" fill-opacity="0.5"/>
<path d="M72.327 200.999L66.6019 191.967L66.5386 192.003L72.2472 201.03C83.2013 216.913 72.327 200.999 72.327 200.999Z" fill="#F4C465" fill-opacity="0.5"/>
<path d="M71.5551 103.77L81.0839 98.9381L81.048 98.8748L71.5192 103.706L71.5551 103.77Z" fill="#F4C465" fill-opacity="0.5"/>
<path d="M62.7045 108.788L71.5551 103.77L71.5192 103.706L62.6685 108.725L62.7045 108.788Z" fill="#F4C465" fill-opacity="0.5"/>
<path d="M81.084 98.9381L88.9947 97.3882L88.9588 97.3248L81.0591 98.8778L81.084 98.9381Z" fill="#F4C465" fill-opacity="0.5"/>
<path d="M62.6686 108.725L59.1656 114.965C58.8426 113.985 57.9105 112.439 58.2321 112.113C59.5147 110.799 61.1794 109.863 62.71 108.79L62.6686 108.725Z" fill="#F4C465" fill-opacity="0.5"/>
<path d="M50.2661 153.838C49.5056 152.144 48.5442 150.489 48.1215 148.71C48.0091 148.258 49.5872 147.399 50.3906 146.725L50.1973 153.873L50.2661 153.838Z" fill="#F4C465" fill-opacity="0.5"/>
<path d="M59.084 178.683L57.5389 170.783L57.4756 170.819L59.0152 178.718L59.084 178.683Z" fill="#F4C465" fill-opacity="0.5"/>
<path d="M44.0924 189.481L40.6016 195.676C40.2817 194.686 39.3637 193.132 39.7009 192.792C40.9648 191.502 42.6329 190.598 44.1559 189.552L44.0924 189.481Z" fill="#F4C465" fill-opacity="0.5"/>
<path d="M80.8194 210.818L74.8256 205.446L74.7622 205.482L80.7475 210.863L80.8194 210.818Z" fill="#F4C465" fill-opacity="0.5"/>
<path d="M30.3563 223.219L33.6576 220.569C33.9374 221.833 34.6831 223.173 34.3806 224.247C34.0781 225.321 32.7143 225.984 31.8095 226.832L30.3563 223.219Z" fill="#F4C465" fill-opacity="0.5"/>
<path d="M40.0539 247.393C40.8215 249.083 41.7859 250.727 42.2061 252.493C42.317 252.951 40.7429 253.817 39.9435 254.499C39.9964 252.115 40.0598 249.736 40.1337 247.362L40.0539 247.393Z" fill="#F4C465" fill-opacity="0.5"/>
<path d="M88.9947 97.3882C90.5675 96.6351 92.0985 95.6034 93.7513 95.2049C94.2344 95.0889 95.1115 96.7262 95.8473 97.5645L88.9423 97.3203L88.9947 97.3882Z" fill="#F4C465" fill-opacity="0.5"/>
<path d="M43.227 263.152C42.3903 261.734 41.3558 260.344 40.8692 258.797C40.739 258.387 42.3185 257.416 43.1054 256.737C43.1201 258.89 43.1396 261.041 43.1637 263.188L43.227 263.152Z" fill="#F4C465" fill-opacity="0.5"/>
<path d="M101.952 93.444L98.6839 96.1453L97.5926 94.1876L101.98 93.5349L101.952 93.444Z" fill="#F4C465" fill-opacity="0.5"/>
<path d="M48.9406 272.204L45.7287 267.589L45.6598 267.624L48.8772 272.24L48.9406 272.204Z" fill="#F4C465" fill-opacity="0.5"/>
<path d="M44.1283 189.544L46.7457 186.77L47.8171 188.692L44.0924 189.481L44.1283 189.544Z" fill="#F4C465" fill-opacity="0.5"/>
<path d="M106.39 90.9294L101.963 93.447L101.999 93.5104L106.428 90.9873L106.39 90.9294Z" fill="#F4C465" fill-opacity="0.5"/>
<path d="M74.8256 205.446C73.9875 203.968 73.1537 202.489 72.324 201.01L72.2552 201.044L74.7623 205.482L74.8256 205.446Z" fill="#F4C465" fill-opacity="0.5"/>
<path d="M43.1512 263.191L45.6582 267.629L45.7271 267.595L43.227 263.152L43.1512 263.191Z" fill="#F4C465" fill-opacity="0.5"/>
<path d="M50.1918 153.871L52.9295 156.657L51.2729 157.607L50.2661 153.838L50.1918 153.871Z" fill="#F4C465" fill-opacity="0.5"/>
<path d="M57.5389 170.783L54.6876 168.214L56.5877 167.071L57.4581 170.796L57.5389 170.783Z" fill="#F4C465" fill-opacity="0.5"/>
<path d="M64.0315 187.565L66.5386 192.003L66.6019 191.967C65.7733 190.484 64.9376 189.005 64.0948 187.529L64.0315 187.565Z" fill="#F4C465" fill-opacity="0.5"/>
<path d="M52.6776 166.252C52.1794 165.005 51.5465 164.159 51.7471 163.734C52.0008 163.18 52.9117 162.761 53.5999 162.654C53.8478 162.616 54.6293 163.74 54.5191 164.161C54.3681 164.772 53.6416 165.254 52.6776 166.252Z" fill="#F4C465" fill-opacity="0.5"/>
<path d="M213.542 199.697L213.469 197.812" stroke="#F4C465" stroke-opacity="0.5" stroke-width="2" stroke-linecap="round" stroke-linejoin="round"/>
<path d="M211.99 191.8L212.875 186.446" stroke="#F4C465" stroke-opacity="0.5" stroke-width="2" stroke-linecap="round" stroke-linejoin="round"/>
<path d="M209.874 142.684L209.835 140.803" stroke="#F4C465" stroke-opacity="0.5" stroke-width="2" stroke-linecap="round" stroke-linejoin="round"/>
<path d="M208.705 133.397L209.623 128.052" stroke="#F4C465" stroke-opacity="0.5" stroke-width="2" stroke-linecap="round" stroke-linejoin="round"/>
<path d="M209.067 118.566L210.369 111.831" stroke="#F4C465" stroke-opacity="0.5" stroke-width="2" stroke-linecap="round" stroke-linejoin="round"/>
<path d="M214.281 98.3491L215.854 94.6751" stroke="#F4C465" stroke-opacity="0.5" stroke-width="2" stroke-linecap="round" stroke-linejoin="round"/>
<path d="M228.886 129.251L228.351 133.211" stroke="#F4C465" stroke-opacity="0.5" stroke-width="2" stroke-linecap="round" stroke-linejoin="round"/>
<path d="M229.477 140.628L228.942 144.588" stroke="#F4C465" stroke-opacity="0.5" stroke-width="2" stroke-linecap="round" stroke-linejoin="round"/>
<path d="M229.117 212.213C229.133 212.841 229.146 213.462 229.157 214.088" stroke="#F4C465" stroke-opacity="0.5" stroke-width="2" stroke-linecap="round" stroke-linejoin="round"/>
<path d="M195.42 36.2036L193.137 35.0153" stroke="#F4C465" stroke-opacity="0.5" stroke-width="2" stroke-linecap="round" stroke-linejoin="round"/>
<path d="M181.648 32.0329L179.073 31.8801" stroke="#F4C465" stroke-opacity="0.5" stroke-width="2" stroke-linecap="round" stroke-linejoin="round"/>
<path d="M139.393 62.7417L138.396 64.3307" stroke="#F4C465" stroke-opacity="0.5" stroke-width="2" stroke-linecap="round" stroke-linejoin="round"/>
<path d="M134.01 68.7179L124.879 78.1472" stroke="#F4C465" stroke-opacity="0.5" stroke-width="2" stroke-linecap="round" stroke-linejoin="round"/>
<path d="M269.565 136.018L268.839 140.667" stroke="#F4C465" stroke-opacity="0.5" stroke-width="2" stroke-linecap="round" stroke-linejoin="round"/>
<path d="M255.732 187.45L253.229 194.602" stroke="#F4C465" stroke-opacity="0.5" stroke-width="2" stroke-linecap="round" stroke-linejoin="round"/>
<path d="M94.3074 305.104L88.9648 304.187" stroke="#F4C465" stroke-opacity="0.5" stroke-width="2" stroke-linecap="round" stroke-linejoin="round"/>
<path d="M77.3983 304.17L73.4396 303.635" stroke="#F4C465" stroke-opacity="0.5" stroke-width="2" stroke-linecap="round" stroke-linejoin="round"/>
<path d="M60.4891 303.235L55.1466 302.318" stroke="#F4C465" stroke-opacity="0.5" stroke-width="2" stroke-linecap="round" stroke-linejoin="round"/>
<path d="M43.58 302.301L38.9267 301.574" stroke="#F4C465" stroke-opacity="0.5" stroke-width="2" stroke-linecap="round" stroke-linejoin="round"/>
<path d="M29.4398 302.149L24.7919 301.423" stroke="#F4C465" stroke-opacity="0.5" stroke-width="2" stroke-linecap="round" stroke-linejoin="round"/>
<path d="M18.0615 302.718L14.7884 302.407" stroke="#F4C465" stroke-opacity="0.5" stroke-width="2" stroke-linecap="round" stroke-linejoin="round"/>
<path d="M9.50012 304.088L7.02536 303.594" stroke="#F4C465" stroke-opacity="0.5" stroke-width="2" stroke-linecap="round" stroke-linejoin="round"/>
<path d="M154.983 225.904L150.616 224.14" stroke="#F4C465" stroke-opacity="0.5" stroke-width="2" stroke-linecap="round" stroke-linejoin="round"/>
<path d="M138.875 213.988L133.813 212.032" stroke="#F4C465" stroke-opacity="0.5" stroke-width="2" stroke-linecap="round" stroke-linejoin="round"/>
<path d="M133.466 211.936C132.138 210.448 131.062 208.542 129.424 207.555C124.476 204.563 119.31 201.931 114.231 199.158" stroke="#F4C465" stroke-opacity="0.5" stroke-width="2" stroke-linecap="round" stroke-linejoin="round"/>
<path d="M113.884 199.062L99.8587 191.829" stroke="#F4C465" stroke-opacity="0.5" stroke-width="2" stroke-linecap="round" stroke-linejoin="round"/>
<path d="M75.5874 289.107L69.7405 287.309" stroke="#F4C465" stroke-opacity="0.5" stroke-width="2" stroke-linecap="round" stroke-linejoin="round"/>
<path d="M97.3265 187.396L67.8975 179.087" stroke="#F4C465" stroke-opacity="0.5" stroke-width="2" stroke-linecap="round" stroke-linejoin="round"/>
<path d="M250.247 80.2763L247.201 79.8093" stroke="#F4C465" stroke-opacity="0.5" stroke-width="2" stroke-linecap="round" stroke-linejoin="round"/>
<path d="M54.1299 119.469L48.3837 140.282" stroke="#F4C465" stroke-opacity="0.5" stroke-width="2" stroke-linecap="round" stroke-linejoin="round"/>
<path d="M275.339 244.186L279.893 245.253" stroke="#F4C465" stroke-opacity="0.5" stroke-width="2" stroke-linecap="round" stroke-linejoin="round"/>
<path d="M35.5679 200.217L30.2115 219.617" stroke="#F4C465" stroke-opacity="0.5" stroke-width="2" stroke-linecap="round" stroke-linejoin="round"/>
<path d="M67.7331 283.769L56.1266 279.834" stroke="#F4C465" stroke-opacity="0.5" stroke-width="2" stroke-linecap="round" stroke-linejoin="round"/>
<path d="M95.6426 220.532L87.6949 218.154" stroke="#F4C465" stroke-opacity="0.5" stroke-width="2" stroke-linecap="round" stroke-linejoin="round"/>
<path d="M69.8457 198.509L67.3356 194.082" stroke="#F4C465" stroke-opacity="0.5" stroke-width="2" stroke-linecap="round" stroke-linejoin="round"/>
<path d="M86.1947 214.195L82.0318 213.046" stroke="#F4C465" stroke-opacity="0.5" stroke-width="2" stroke-linecap="round" stroke-linejoin="round"/>
<path d="M33.2842 221.986L32.3262 225.455" stroke="#F4C465" stroke-opacity="0.5" stroke-width="2" stroke-linecap="round" stroke-linejoin="round"/>
<path d="M41.9044 190.764L40.9464 194.234" stroke="#F4C465" stroke-opacity="0.5" stroke-width="2" stroke-linecap="round" stroke-linejoin="round"/>
<path d="M86.7582 98.611L83.2901 97.6535" stroke="#F4C465" stroke-opacity="0.5" stroke-width="2" stroke-linecap="round" stroke-linejoin="round"/>
<path d="M49.9359 148.178L48.9779 151.648" stroke="#F4C465" stroke-opacity="0.5" stroke-width="2" stroke-linecap="round" stroke-linejoin="round"/>
<path d="M60.4719 110.018L59.514 113.488" stroke="#F4C465" stroke-opacity="0.5" stroke-width="2" stroke-linecap="round" stroke-linejoin="round"/>
<path d="M42.6993 258.186L41.9378 260.944" stroke="#F4C465" stroke-opacity="0.5" stroke-width="2" stroke-linecap="round" stroke-linejoin="round"/>
<path d="M39.595 242.393L38.8335 245.151" stroke="#F4C465" stroke-opacity="0.5" stroke-width="2" stroke-linecap="round" stroke-linejoin="round"/>
<path d="M74.801 181.034C67.8695 179.563 60.6566 180.196 54.0853 182.849C47.5141 185.503 41.8835 190.058 37.9143 195.931C33.945 201.804 31.8177 208.728 31.8046 215.817C31.7915 222.906 33.8932 229.836 37.8407 235.722C37.8407 235.722 37.6764 261.27 50.482 273.241C63.2875 285.213 50.8174 273.144 50.153 274.433L53.6211 275.39" stroke="#F4C465" stroke-opacity="0.5" stroke-width="7" stroke-linecap="round" stroke-linejoin="round"/>
<path d="M124.874 78.1457C124.874 78.1457 107.956 93.5761 87.0095 97.7009C68.9424 101.261 54.6909 113.118 50.7609 125.396C42.3279 151.64 58.7512 173.011 58.7512 173.011C58.4314 174.17 69.1981 195.997 68.8722 197.177" stroke="#F4C465" stroke-opacity="0.5" stroke-width="6" stroke-linecap="round" stroke-linejoin="round"/>
<path d="M58.4315 174.17C58.4315 174.17 68.2405 210.04 97.6221 223.679C106.689 226.432 116.046 230.024 125.102 232.774" stroke="#F4C465" stroke-opacity="0.5" stroke-width="2" stroke-miterlimit="10" stroke-linecap="round"/>
<path d="M66.3611 195.053C66.3611 195.053 72.5451 213.104 92.0484 220.697L66.3611 195.053Z" fill="#F4C465" fill-opacity="0.5"/>
</g>
</g>
<defs>
<clipPath id="clip0_110_7">
<rect width="255.101" height="313.97" fill="white" transform="translate(83.561) rotate(15.4349)"/>
</clipPath>
</defs>
</svg>
