<svg width="103" height="24" viewBox="0 0 103 24" fill="none" xmlns="http://www.w3.org/2000/svg">
<path d="M32.016 7.636V16H30.924V7.636H32.016ZM37.0811 9.304C37.8811 9.304 38.5291 9.548 39.0251 10.036C39.5211 10.516 39.7691 11.212 39.7691 12.124V16H38.6891V12.28C38.6891 11.624 38.5251 11.124 38.1971 10.78C37.8691 10.428 37.4211 10.252 36.8531 10.252C36.2771 10.252 35.8171 10.432 35.4731 10.792C35.1371 11.152 34.9691 11.676 34.9691 12.364V16H33.8771V9.424H34.9691V10.36C35.1851 10.024 35.4771 9.764 35.8451 9.58C36.2211 9.396 36.6331 9.304 37.0811 9.304ZM44.2289 10.324H42.8489V16H41.7569V10.324H40.9049V9.424H41.7569V8.956C41.7569 8.22 41.9449 7.684 42.3209 7.348C42.7049 7.004 43.3169 6.832 44.1569 6.832V7.744C43.6769 7.744 43.3369 7.84 43.1369 8.032C42.9449 8.216 42.8489 8.524 42.8489 8.956V9.424H44.2289V10.324ZM48.3701 16.108C47.7541 16.108 47.1941 15.968 46.6901 15.688C46.1941 15.408 45.8021 15.012 45.5141 14.5C45.2341 13.98 45.0941 13.38 45.0941 12.7C45.0941 12.028 45.2381 11.436 45.5261 10.924C45.8221 10.404 46.2221 10.008 46.7261 9.736C47.2301 9.456 47.7941 9.316 48.4181 9.316C49.0421 9.316 49.6061 9.456 50.1101 9.736C50.6141 10.008 51.0101 10.4 51.2981 10.912C51.5941 11.424 51.7421 12.02 51.7421 12.7C51.7421 13.38 51.5901 13.98 51.2861 14.5C50.9901 15.012 50.5861 15.408 50.0741 15.688C49.5621 15.968 48.9941 16.108 48.3701 16.108ZM48.3701 15.148C48.7621 15.148 49.1301 15.056 49.4741 14.872C49.8181 14.688 50.0941 14.412 50.3021 14.044C50.5181 13.676 50.6261 13.228 50.6261 12.7C50.6261 12.172 50.5221 11.724 50.3141 11.356C50.1061 10.988 49.8341 10.716 49.4981 10.54C49.1621 10.356 48.7981 10.264 48.4061 10.264C48.0061 10.264 47.6381 10.356 47.3021 10.54C46.9741 10.716 46.7101 10.988 46.5101 11.356C46.3101 11.724 46.2101 12.172 46.2101 12.7C46.2101 13.236 46.3061 13.688 46.4981 14.056C46.6981 14.424 46.9621 14.7 47.2901 14.884C47.6181 15.06 47.9781 15.148 48.3701 15.148ZM54.2699 10.492C54.4619 10.116 54.7339 9.824 55.0859 9.616C55.4459 9.408 55.8819 9.304 56.3939 9.304V10.432H56.1059C54.8819 10.432 54.2699 11.096 54.2699 12.424V16H53.1779V9.424H54.2699V10.492ZM65.5625 9.304C66.0745 9.304 66.5305 9.412 66.9305 9.628C67.3305 9.836 67.6465 10.152 67.8785 10.576C68.1105 11 68.2265 11.516 68.2265 12.124V16H67.1465V12.28C67.1465 11.624 66.9825 11.124 66.6545 10.78C66.3345 10.428 65.8985 10.252 65.3465 10.252C64.7785 10.252 64.3265 10.436 63.9905 10.804C63.6545 11.164 63.4865 11.688 63.4865 12.376V16H62.4065V12.28C62.4065 11.624 62.2425 11.124 61.9145 10.78C61.5945 10.428 61.1585 10.252 60.6065 10.252C60.0385 10.252 59.5865 10.436 59.2505 10.804C58.9145 11.164 58.7465 11.688 58.7465 12.376V16H57.6545V9.424H58.7465V10.372C58.9625 10.028 59.2505 9.764 59.6105 9.58C59.9785 9.396 60.3825 9.304 60.8225 9.304C61.3745 9.304 61.8625 9.428 62.2865 9.676C62.7105 9.924 63.0265 10.288 63.2345 10.768C63.4185 10.304 63.7225 9.944 64.1465 9.688C64.5705 9.432 65.0425 9.304 65.5625 9.304ZM69.6098 12.688C69.6098 12.016 69.7458 11.428 70.0178 10.924C70.2898 10.412 70.6618 10.016 71.1338 9.736C71.6138 9.456 72.1458 9.316 72.7298 9.316C73.3058 9.316 73.8058 9.44 74.2298 9.688C74.6538 9.936 74.9698 10.248 75.1778 10.624V9.424H76.2818V16H75.1778V14.776C74.9618 15.16 74.6378 15.48 74.2058 15.736C73.7818 15.984 73.2858 16.108 72.7178 16.108C72.1338 16.108 71.6058 15.964 71.1338 15.676C70.6618 15.388 70.2898 14.984 70.0178 14.464C69.7458 13.944 69.6098 13.352 69.6098 12.688ZM75.1778 12.7C75.1778 12.204 75.0778 11.772 74.8778 11.404C74.6778 11.036 74.4058 10.756 74.0618 10.564C73.7258 10.364 73.3538 10.264 72.9458 10.264C72.5378 10.264 72.1658 10.36 71.8298 10.552C71.4938 10.744 71.2258 11.024 71.0258 11.392C70.8258 11.76 70.7258 12.192 70.7258 12.688C70.7258 13.192 70.8258 13.632 71.0258 14.008C71.2258 14.376 71.4938 14.66 71.8298 14.86C72.1658 15.052 72.5378 15.148 72.9458 15.148C73.3538 15.148 73.7258 15.052 74.0618 14.86C74.4058 14.66 74.6778 14.376 74.8778 14.008C75.0778 13.632 75.1778 13.196 75.1778 12.7ZM77.7191 12.7C77.7191 12.02 77.8551 11.428 78.1271 10.924C78.3991 10.412 78.7751 10.016 79.2551 9.736C79.7431 9.456 80.2991 9.316 80.9231 9.316C81.7311 9.316 82.3951 9.512 82.9151 9.904C83.4431 10.296 83.7911 10.84 83.9591 11.536H82.7831C82.6711 11.136 82.4511 10.82 82.1231 10.588C81.8031 10.356 81.4031 10.24 80.9231 10.24C80.2991 10.24 79.7951 10.456 79.4111 10.888C79.0271 11.312 78.8351 11.916 78.8351 12.7C78.8351 13.492 79.0271 14.104 79.4111 14.536C79.7951 14.968 80.2991 15.184 80.9231 15.184C81.4031 15.184 81.8031 15.072 82.1231 14.848C82.4431 14.624 82.6631 14.304 82.7831 13.888H83.9591C83.7831 14.56 83.4311 15.1 82.9031 15.508C82.3751 15.908 81.7151 16.108 80.9231 16.108C80.2991 16.108 79.7431 15.968 79.2551 15.688C78.7751 15.408 78.3991 15.012 78.1271 14.5C77.8551 13.988 77.7191 13.388 77.7191 12.7ZM85.9802 8.356C85.7722 8.356 85.5962 8.284 85.4522 8.14C85.3082 7.996 85.2362 7.82 85.2362 7.612C85.2362 7.404 85.3082 7.228 85.4522 7.084C85.5962 6.94 85.7722 6.868 85.9802 6.868C86.1802 6.868 86.3482 6.94 86.4842 7.084C86.6282 7.228 86.7002 7.404 86.7002 7.612C86.7002 7.82 86.6282 7.996 86.4842 8.14C86.3482 8.284 86.1802 8.356 85.9802 8.356ZM86.5082 9.424V16H85.4162V9.424H86.5082ZM91.2373 16.108C90.6213 16.108 90.0613 15.968 89.5573 15.688C89.0613 15.408 88.6693 15.012 88.3813 14.5C88.1013 13.98 87.9613 13.38 87.9613 12.7C87.9613 12.028 88.1053 11.436 88.3933 10.924C88.6893 10.404 89.0893 10.008 89.5933 9.736C90.0973 9.456 90.6613 9.316 91.2853 9.316C91.9093 9.316 92.4733 9.456 92.9773 9.736C93.4813 10.008 93.8773 10.4 94.1653 10.912C94.4613 11.424 94.6093 12.02 94.6093 12.7C94.6093 13.38 94.4573 13.98 94.1533 14.5C93.8573 15.012 93.4533 15.408 92.9413 15.688C92.4293 15.968 91.8613 16.108 91.2373 16.108ZM91.2373 15.148C91.6293 15.148 91.9973 15.056 92.3413 14.872C92.6853 14.688 92.9613 14.412 93.1693 14.044C93.3853 13.676 93.4933 13.228 93.4933 12.7C93.4933 12.172 93.3893 11.724 93.1813 11.356C92.9733 10.988 92.7013 10.716 92.3653 10.54C92.0293 10.356 91.6653 10.264 91.2733 10.264C90.8733 10.264 90.5053 10.356 90.1693 10.54C89.8413 10.716 89.5773 10.988 89.3773 11.356C89.1773 11.724 89.0773 12.172 89.0773 12.7C89.0773 13.236 89.1733 13.688 89.3653 14.056C89.5653 14.424 89.8293 14.7 90.1573 14.884C90.4853 15.06 90.8453 15.148 91.2373 15.148ZM92.4613 7.48L89.9053 8.848V8.032L92.4613 6.532V7.48ZM99.2491 9.304C100.049 9.304 100.697 9.548 101.193 10.036C101.689 10.516 101.937 11.212 101.937 12.124V16H100.857V12.28C100.857 11.624 100.693 11.124 100.365 10.78C100.037 10.428 99.5891 10.252 99.0211 10.252C98.4451 10.252 97.9851 10.432 97.6411 10.792C97.3051 11.152 97.1371 11.676 97.1371 12.364V16H96.0451V9.424H97.1371V10.36C97.3531 10.024 97.6451 9.764 98.0131 9.58C98.3891 9.396 98.8011 9.304 99.2491 9.304Z" fill="#9D7D79"/>
<circle cx="12" cy="12" r="11" fill="#FBBA7E"/>
<path d="M8 12H16" stroke="#9D7D79" stroke-linecap="round" stroke-linejoin="round"/>
<path d="M12 8V16" stroke="#9D7D79" stroke-linecap="round" stroke-linejoin="round"/>
<path d="M23 12C23 18.0752 18.0752 23 12 23C5.92487 23 1 18.0752 1 12C1 5.92487 5.92487 1 12 1C18.0752 1 23 5.92487 23 12Z" stroke="#9D7D79"/>
</svg>
