<svg width="204" height="205" viewBox="0 0 204 205" fill="none" xmlns="http://www.w3.org/2000/svg">
<ellipse cx="102" cy="102.5" rx="102" ry="102.5" fill="#F6927C"/>
<g clip-path="url(#clip0_110_444)">
<path d="M134.555 128.26C135.616 130.107 136.618 131.595 137.373 133.203C138.912 136.486 139.009 140.016 138.441 143.493C137.903 146.806 135.055 149.042 131.602 149.289C131.191 149.289 130.773 149.289 130.362 149.289H72.8096C70.9606 149.379 69.1362 148.835 67.6374 147.748C66.6914 147.046 65.9266 146.128 65.4066 145.07C64.8866 144.013 64.6264 142.847 64.6477 141.668C64.5057 136.92 65.3204 132.492 68.639 128.828C68.7735 128.686 68.7885 128.432 68.923 128.043C68.1756 127.99 67.473 127.908 66.8078 127.908C59.4431 127.908 52.0809 127.908 44.7213 127.908C42.8228 127.908 41.0738 127.557 39.6462 126.158C38.6166 125.154 38.0141 123.79 37.9645 122.352C37.4712 115.741 40.4983 111.344 46.2983 108.45C50.6271 106.161 55.3955 104.828 60.2827 104.539C67.8563 104.207 75.3034 106.564 81.3079 111.194C83.595 112.922 84.7236 115.479 85.2394 118.291C85.5832 120.213 85.5907 120.213 87.5414 119.69C92.5866 118.329 97.7438 117.446 102.946 117.805C107.331 118.247 111.692 118.908 116.011 119.787C117.745 120.086 117.782 120.168 118.081 118.478C118.378 116.585 119.108 114.786 120.214 113.222C121.32 111.658 122.772 110.37 124.457 109.459C129.138 106.66 134.403 104.984 139.839 104.561C145.474 104.227 151.094 105.426 156.103 108.031C157.763 108.825 159.338 109.784 160.804 110.895C162.278 112.015 163.456 113.478 164.237 115.156C165.019 116.834 165.38 118.678 165.289 120.527C165.373 121.713 165.285 122.904 165.027 124.064C164.078 126.929 161.985 128.125 158.405 128.125C151.133 128.125 143.86 128.125 136.588 128.125C135.975 128.103 135.362 128.2 134.555 128.26ZM101.75 144.435H116.938C121.579 144.435 126.228 144.435 130.877 144.435C132.529 144.435 133.635 143.687 133.792 142.281C134.316 137.712 133.389 133.569 129.487 130.735C127.693 129.434 125.518 128.641 123.508 127.661C116.407 124.186 108.577 122.465 100.674 122.643C92.7286 122.793 85.1796 124.887 77.9295 128.23C72.4359 130.742 69.0127 134.407 69.3416 140.823C69.491 143.59 70.2011 144.405 73.0787 144.405C82.6259 144.435 92.183 144.445 101.75 144.435ZM142.739 123.234C148.076 123.234 153.415 123.234 158.756 123.234C159.579 123.234 160.296 123.234 160.505 122.142C160.759 120.588 160.561 118.994 159.936 117.549C159.31 116.104 158.284 114.869 156.978 113.991C147.396 108.27 137.679 107.687 127.738 113.131C124.674 114.814 122.611 117.012 122.745 120.692C122.754 120.972 122.826 121.246 122.956 121.495C123.085 121.743 123.269 121.959 123.493 122.127C124.679 122.706 125.961 123.065 127.275 123.189C132.425 123.302 137.582 123.234 142.739 123.234ZM60.7611 123.025H74.013C75.1117 123.025 76.2553 123.07 77.3241 123.025C80.0597 122.875 80.837 121.97 80.5081 119.286C80.3965 118.25 80.0461 117.254 79.4845 116.377C78.9229 115.5 78.1655 114.765 77.2718 114.23C73.5086 111.765 69.25 110.157 64.7972 109.519C58.4142 108.659 52.6365 110.499 47.1056 113.55C44.1158 115.21 42.621 117.641 42.7181 121.028C42.7705 122.815 42.9125 122.987 44.7213 122.987L60.7611 123.025Z" fill="white"/>
<path d="M101.698 111.852C99.2508 111.861 96.8265 111.383 94.5666 110.444C92.3066 109.505 90.2563 108.125 88.5355 106.384C86.8146 104.644 85.4577 102.578 84.544 100.306C83.6302 98.0352 83.1781 95.6046 83.2138 93.1565C83.2587 83.1431 91.727 74.9619 101.989 75.0366C111.833 75.1264 120.107 83.517 120.055 93.4781C120.037 98.3445 118.097 103.007 114.659 106.448C111.22 109.89 106.562 111.833 101.698 111.852ZM101.698 79.9723C99.9226 79.9354 98.1581 80.2538 96.5077 80.9088C94.8573 81.5638 93.3543 82.5421 92.0871 83.7863C90.8198 85.0306 89.8139 86.5156 89.1282 88.1543C88.4426 89.7929 88.0912 91.5521 88.0945 93.3285C88.0516 96.0203 88.8096 98.664 90.2722 100.924C91.7348 103.183 93.8359 104.957 96.3085 106.018C98.781 107.08 101.513 107.382 104.158 106.886C106.802 106.39 109.24 105.119 111.16 103.233C113.081 101.347 114.397 98.9332 114.943 96.297C115.488 93.6608 115.238 90.9219 114.224 88.4284C113.209 85.935 111.477 83.7997 109.246 82.2939C107.016 80.7882 104.388 79.9801 101.698 79.9723Z" fill="white"/>
<path d="M154.638 88.191C154.324 95.8786 148.375 101.547 140.96 101.211C137.497 101.03 134.247 99.4806 131.926 96.9029C129.605 94.3252 128.402 90.9305 128.583 87.4656C128.763 84.0006 130.312 80.7493 132.888 78.4268C135.465 76.1044 138.857 74.901 142.32 75.0815C149.1 75.3732 154.915 81.5577 154.638 88.191ZM133.404 88.0638C133.372 89.1368 133.554 90.2054 133.941 91.2068C134.327 92.2082 134.91 93.1223 135.654 93.8955C136.398 94.6687 137.289 95.2854 138.275 95.7095C139.26 96.1335 140.321 96.3562 141.394 96.3647C142.512 96.4053 143.627 96.2153 144.669 95.8065C145.711 95.3977 146.658 94.7789 147.451 93.9885C148.243 93.198 148.865 92.2529 149.278 91.2118C149.69 90.1707 149.884 89.0559 149.847 87.9367C149.83 85.755 148.948 83.6693 147.394 82.1386C145.84 80.6078 143.742 79.7573 141.562 79.7741C139.381 79.791 137.297 80.6738 135.767 82.2285C134.237 83.7831 133.387 85.8821 133.404 88.0638Z" fill="white"/>
<path d="M61.8523 75.0589C68.8034 75.1411 74.7828 81.0415 74.738 87.772C74.6931 95.3549 68.8483 101.308 61.5608 101.233C58.0918 101.194 54.7802 99.7783 52.3546 97.2967C49.9289 94.815 48.5879 91.4709 48.6266 88C48.6652 84.5292 50.0804 81.2158 52.5607 78.7888C55.041 76.3619 58.3833 75.0202 61.8523 75.0589ZM61.7477 79.9347C60.668 79.9273 59.5974 80.1328 58.5971 80.5394C57.5968 80.946 56.6863 81.5458 55.9176 82.3044C55.149 83.0631 54.5372 83.9658 54.1172 84.961C53.6972 85.9562 53.4773 87.0245 53.4699 88.1047C53.4625 89.185 53.6679 90.2562 54.0743 91.257C54.4807 92.2579 55.0801 93.1688 55.8384 93.9379C56.5966 94.707 57.4988 95.3191 58.4935 95.7393C59.4882 96.1595 60.5559 96.3796 61.6356 96.3869C62.7153 96.3943 63.7858 96.1888 64.7861 95.7822C65.7865 95.3756 66.697 94.7759 67.4656 94.0172C68.2343 93.2586 68.8461 92.3559 69.266 91.3606C69.686 90.3654 69.906 89.2972 69.9133 88.2169C69.9207 87.1366 69.7153 86.0655 69.309 85.0646C68.9026 84.0638 68.3031 83.1528 67.5449 82.3837C66.7866 81.6147 65.8844 81.0026 64.8897 80.5823C63.895 80.1621 62.8274 79.9421 61.7477 79.9347Z" fill="white"/>
</g>
<defs>
<clipPath id="clip0_110_444">
<rect width="127.399" height="74.252" fill="white" transform="translate(37.8972 75.0591)"/>
</clipPath>
</defs>
</svg>
