<svg width="204" height="205" viewBox="0 0 204 205" fill="none" xmlns="http://www.w3.org/2000/svg">
<ellipse cx="102" cy="102.5" rx="102" ry="102.5" fill="#F4C465"/>
<path d="M34.3834 149.228H46.154C46.3354 149.531 46.5975 149.783 46.9141 149.96C47.2307 150.137 47.5908 150.233 47.9585 150.237H55.6642C57.2751 150.234 58.8474 149.77 60.175 148.905C61.5026 148.041 62.5234 146.817 63.1036 145.394H75.002L109.892 157.798C112.665 158.789 115.639 159.173 118.59 158.921C121.542 158.668 124.395 157.785 126.935 156.339L163.602 134.344C164.046 134.077 164.425 133.722 164.711 133.304C164.997 132.886 165.184 132.414 165.259 131.921C165.334 131.427 165.296 130.924 165.147 130.447C164.998 129.969 164.741 129.527 164.395 129.152C162.269 126.831 159.452 125.174 156.314 124.397C153.175 123.621 149.862 123.762 146.81 124.801L145.338 125.296C143.356 119.172 139.511 113.739 134.284 109.676C129.057 105.613 122.68 103.1 115.953 102.453V89.9727C116.46 90.0131 116.991 90.0413 117.568 90.0413C120.659 90.0118 123.704 89.3323 126.483 88.0519C129.263 86.7715 131.707 84.9223 133.64 82.6378C145.044 70.2117 136.912 52.3474 136.561 51.5927C136.382 51.2178 136.088 50.9029 135.717 50.6893C135.346 50.4757 134.915 50.3735 134.481 50.3961C127.067 50.9956 119.979 53.5584 114.029 57.7916C108.439 53.2856 101.643 50.3297 94.391 49.2499C93.9594 49.1955 93.5205 49.2677 93.1335 49.4568C92.7465 49.6458 92.43 49.9427 92.2265 50.3073C91.8196 51.0357 82.3818 68.3148 92.8358 81.4694C94.7037 84.0683 97.2074 86.2008 100.134 87.685C103.06 89.1691 106.321 89.961 109.641 89.9929C110.329 89.992 111.018 89.957 111.703 89.888V102.284C106.636 102.384 101.654 103.535 97.1063 105.655C92.559 107.774 88.557 110.811 85.3815 114.553C83.1308 114.233 80.8463 114.187 78.5833 114.415L62.8373 116.007C62.1872 114.729 61.1706 113.65 59.9036 112.894C58.6366 112.137 57.1704 111.734 55.6727 111.73H47.9585C47.5908 111.734 47.2307 111.829 46.9141 112.006C46.5975 112.183 46.3354 112.436 46.154 112.738H34.3834C33.8184 112.738 33.2765 112.951 32.877 113.329C32.4774 113.708 32.253 114.221 32.253 114.756V147.21C32.253 147.745 32.4774 148.258 32.877 148.637C33.2765 149.015 33.8184 149.228 34.3834 149.228ZM130.425 79.9842C128.946 81.7429 127.091 83.1863 124.983 84.22C122.875 85.2537 120.56 85.8546 118.19 85.9834C120.182 83.3911 121.466 80.3719 121.927 77.1953C122.388 74.0187 122.012 70.7834 120.832 67.7781C119.978 65.2487 118.657 62.8833 116.929 60.7922C121.717 57.4574 127.317 55.3236 133.209 54.5892C134.735 58.7118 138.403 71.2912 130.425 79.9842ZM96.2296 79.0358C88.9158 69.8363 93.5069 57.5313 95.3348 53.5117C99.8492 54.4318 113.096 58.0216 116.771 68.9989C117.777 71.4941 118.084 74.1931 117.664 76.834C117.244 79.475 116.111 81.9684 114.374 84.0725L103.671 64.4224L99.8854 66.2707L110.582 85.9148C107.768 86.0295 104.97 85.4571 102.456 84.2525C99.9431 83.0479 97.7988 81.2515 96.2296 79.0358ZM112.342 106.295C118.842 106.276 125.174 108.247 130.396 111.915C135.617 115.582 139.447 120.749 141.316 126.646L120.269 133.72C119.537 132.354 118.415 131.208 117.031 130.413L95.5201 118.009C93.7896 117.019 91.9474 116.217 90.0279 115.616C92.8675 112.689 96.3158 110.35 100.156 108.745C103.996 107.141 108.145 106.307 112.342 106.295ZM79.0285 118.427C84.0074 117.938 89.0187 119.001 93.3024 121.454L114.807 133.858C115.758 134.414 116.454 135.287 116.759 136.305C117.065 137.323 116.957 138.413 116.457 139.359C115.957 140.306 115.101 141.041 114.057 141.419C113.014 141.798 111.859 141.794 110.819 141.406L90.0407 133.537L88.4599 137.284L109.238 145.154C110.545 145.649 111.96 145.837 113.361 145.703C114.762 145.569 116.108 145.116 117.284 144.382C118.46 143.649 119.432 142.657 120.116 141.492C120.8 140.326 121.176 139.021 121.213 137.688L148.229 128.607C150.361 127.881 152.669 127.75 154.878 128.229C157.087 128.709 159.104 129.779 160.69 131.313L124.698 152.904C122.712 154.028 120.484 154.713 118.179 154.907C115.875 155.101 113.554 154.799 111.39 154.024L76.1376 141.481C75.8983 141.397 75.6451 141.354 75.3898 141.354H63.6512V119.983L79.0285 118.427ZM50.0889 115.765H55.6642C56.653 115.768 57.6004 116.142 58.2989 116.805C58.9973 117.468 59.3897 118.366 59.3903 119.303V142.67C59.3881 143.605 58.9948 144.502 58.2966 145.164C57.5984 145.825 56.6519 146.198 55.6642 146.201H50.0889V115.765ZM36.5138 116.774H45.828V145.192H36.5138V116.774Z" fill="white"/>
</svg>
