<svg width="14" height="13" viewBox="0 0 14 13" fill="none" xmlns="http://www.w3.org/2000/svg">
<path fill-rule="evenodd" clip-rule="evenodd" d="M7.00207 -1.60139e-09C3.40103 -7.1923e-10 0.465088 2.91652 0.465088 6.49823C0.465088 10.0799 3.40162 13 7.00207 13C10.6025 13 13.5331 10.0799 13.5331 6.49823C13.5331 2.91652 10.6025 -2.48341e-09 7.00207 -1.60139e-09ZM7.00207 1.1815C7.7042 1.18033 8.39965 1.31706 9.04854 1.58385C9.69744 1.85064 10.287 2.24225 10.7834 2.7362C11.2799 3.23015 11.6734 3.81674 11.9414 4.46231C12.2095 5.10789 12.3468 5.79975 12.3454 6.49823C12.3468 7.19689 12.2096 7.88896 11.9416 8.53477C11.6737 9.18058 11.2802 9.76743 10.7838 10.2617C10.2874 10.7559 9.69786 11.1479 9.04891 11.415C8.39996 11.6822 7.70439 11.8193 7.00207 11.8185C6.29944 11.8194 5.60355 11.6823 4.95424 11.4153C4.30492 11.1482 3.71493 10.7564 3.21804 10.2622C2.72116 9.76802 2.32714 9.18119 2.05855 8.53531C1.78995 7.88943 1.65206 7.19719 1.65277 6.49823C1.65277 3.55512 4.04356 1.1815 7.00207 1.1815ZM6.99256 2.35472C6.91407 2.35549 6.83651 2.37172 6.76437 2.4025C6.69222 2.43327 6.62693 2.47797 6.57226 2.534C6.51759 2.59003 6.47463 2.65629 6.44586 2.72895C6.41709 2.8016 6.40309 2.87921 6.40466 2.95728L6.40466 6.49823C6.40499 6.57596 6.42074 6.65287 6.45101 6.72454C6.48127 6.79621 6.52546 6.86124 6.58103 6.91589L8.95639 9.28006C9.01133 9.33631 9.07699 9.38111 9.14952 9.41185C9.22206 9.44259 9.30002 9.45865 9.37886 9.4591C9.4577 9.45955 9.53584 9.44438 9.60872 9.41447C9.6816 9.38456 9.74777 9.34052 9.80336 9.2849C9.85895 9.22928 9.90285 9.16321 9.93251 9.09054C9.96216 9.01787 9.97697 8.94005 9.97607 8.86163C9.97517 8.7832 9.95858 8.70574 9.92727 8.63376C9.89596 8.56178 9.85055 8.49672 9.7937 8.44238L7.59353 6.25366L7.59353 2.95728C7.59513 2.87812 7.58071 2.79944 7.55113 2.72592C7.52156 2.65241 7.47743 2.58556 7.42137 2.52935C7.36531 2.47314 7.29846 2.42872 7.22479 2.39872C7.15113 2.36872 7.07216 2.35376 6.99256 2.35472Z" fill="#D19264"/>
</svg>
